%TF.GenerationSoftware,KiCad,Pcbnew,7.0.9*%
%TF.CreationDate,2024-06-15T20:43:59+01:00*%
%TF.ProjectId,IIci_Reloaded,49496369-5f52-4656-9c6f-616465642e6b,rev?*%
%TF.SameCoordinates,Original*%
%TF.FileFunction,Paste,Top*%
%TF.FilePolarity,Positive*%
%FSLAX46Y46*%
G04 Gerber Fmt 4.6, Leading zero omitted, Abs format (unit mm)*
G04 Created by KiCad (PCBNEW 7.0.9) date 2024-06-15 20:43:59*
%MOMM*%
%LPD*%
G01*
G04 APERTURE LIST*
G04 Aperture macros list*
%AMRoundRect*
0 Rectangle with rounded corners*
0 $1 Rounding radius*
0 $2 $3 $4 $5 $6 $7 $8 $9 X,Y pos of 4 corners*
0 Add a 4 corners polygon primitive as box body*
4,1,4,$2,$3,$4,$5,$6,$7,$8,$9,$2,$3,0*
0 Add four circle primitives for the rounded corners*
1,1,$1+$1,$2,$3*
1,1,$1+$1,$4,$5*
1,1,$1+$1,$6,$7*
1,1,$1+$1,$8,$9*
0 Add four rect primitives between the rounded corners*
20,1,$1+$1,$2,$3,$4,$5,0*
20,1,$1+$1,$4,$5,$6,$7,0*
20,1,$1+$1,$6,$7,$8,$9,0*
20,1,$1+$1,$8,$9,$2,$3,0*%
G04 Aperture macros list end*
%ADD10RoundRect,0.635000X0.635000X0.635000X-0.635000X0.635000X-0.635000X-0.635000X0.635000X-0.635000X0*%
%ADD11RoundRect,0.150000X-0.150000X-0.950000X0.150000X-0.950000X0.150000X0.950000X-0.150000X0.950000X0*%
%ADD12RoundRect,0.150000X-0.950000X0.150000X-0.950000X-0.150000X0.950000X-0.150000X0.950000X0.150000X0*%
%ADD13RoundRect,0.150000X0.150000X-0.587500X0.150000X0.587500X-0.150000X0.587500X-0.150000X-0.587500X0*%
%ADD14O,2.500000X0.650000*%
%ADD15O,0.650000X2.500000*%
%ADD16R,0.700000X1.925000*%
%ADD17R,1.925000X0.700000*%
%ADD18RoundRect,0.150000X-0.837500X-0.150000X0.837500X-0.150000X0.837500X0.150000X-0.837500X0.150000X0*%
%ADD19RoundRect,0.250000X0.562500X3.050000X-0.562500X3.050000X-0.562500X-3.050000X0.562500X-3.050000X0*%
%ADD20RoundRect,0.150000X0.150000X-0.837500X0.150000X0.837500X-0.150000X0.837500X-0.150000X-0.837500X0*%
%ADD21RoundRect,0.150000X-0.150000X0.837500X-0.150000X-0.837500X0.150000X-0.837500X0.150000X0.837500X0*%
%ADD22R,0.700000X2.500000*%
%ADD23R,2.500000X0.700000*%
%ADD24RoundRect,0.250000X0.787500X0.925000X-0.787500X0.925000X-0.787500X-0.925000X0.787500X-0.925000X0*%
%ADD25RoundRect,0.250000X-0.500000X-1.100000X0.500000X-1.100000X0.500000X1.100000X-0.500000X1.100000X0*%
%ADD26RoundRect,0.150000X0.150000X-0.875000X0.150000X0.875000X-0.150000X0.875000X-0.150000X-0.875000X0*%
%ADD27RoundRect,0.250000X-0.787500X-1.025000X0.787500X-1.025000X0.787500X1.025000X-0.787500X1.025000X0*%
%ADD28RoundRect,0.150000X-0.825000X-0.150000X0.825000X-0.150000X0.825000X0.150000X-0.825000X0.150000X0*%
%ADD29RoundRect,0.150000X0.837500X0.150000X-0.837500X0.150000X-0.837500X-0.150000X0.837500X-0.150000X0*%
%ADD30RoundRect,0.250000X-0.787500X-0.925000X0.787500X-0.925000X0.787500X0.925000X-0.787500X0.925000X0*%
%ADD31RoundRect,0.150000X-0.150000X0.875000X-0.150000X-0.875000X0.150000X-0.875000X0.150000X0.875000X0*%
%ADD32R,3.600000X2.600000*%
%ADD33R,1.800000X0.450000*%
%ADD34R,0.450000X1.800000*%
%ADD35RoundRect,0.150000X0.150000X-0.825000X0.150000X0.825000X-0.150000X0.825000X-0.150000X-0.825000X0*%
%ADD36RoundRect,0.437500X-0.437500X-0.437500X0.437500X-0.437500X0.437500X0.437500X-0.437500X0.437500X0*%
%ADD37RoundRect,0.250000X0.787500X1.025000X-0.787500X1.025000X-0.787500X-1.025000X0.787500X-1.025000X0*%
%ADD38R,0.500000X2.200000*%
%ADD39R,2.200000X0.500000*%
%ADD40RoundRect,0.250000X0.350000X-0.850000X0.350000X0.850000X-0.350000X0.850000X-0.350000X-0.850000X0*%
%ADD41RoundRect,0.250000X1.125000X-1.275000X1.125000X1.275000X-1.125000X1.275000X-1.125000X-1.275000X0*%
%ADD42RoundRect,0.635000X-0.635000X-0.635000X0.635000X-0.635000X0.635000X0.635000X-0.635000X0.635000X0*%
G04 APERTURE END LIST*
D10*
%TO.C,F2*%
X812021000Y52906600D03*
X805671000Y52906600D03*
%TD*%
D11*
%TO.C,UB3*%
X668638000Y17272000D03*
X669908000Y17272000D03*
D12*
X671813000Y19812000D03*
X671813000Y21082000D03*
X671813000Y22352000D03*
X671813000Y23622000D03*
X671813000Y24892000D03*
D11*
X669908000Y27432000D03*
X668638000Y27432000D03*
X667368000Y27432000D03*
X666098000Y27432000D03*
D12*
X664193000Y24892000D03*
X664193000Y23622000D03*
X664193000Y22352000D03*
X664193000Y21082000D03*
X664193000Y19812000D03*
D11*
X666098000Y17272000D03*
X667368000Y17272000D03*
%TD*%
%TO.C,UB2*%
X653423400Y17272000D03*
X654693400Y17272000D03*
D12*
X656598400Y19812000D03*
X656598400Y21082000D03*
X656598400Y22352000D03*
X656598400Y23622000D03*
X656598400Y24892000D03*
D11*
X654693400Y27432000D03*
X653423400Y27432000D03*
X652153400Y27432000D03*
X650883400Y27432000D03*
D12*
X648978400Y24892000D03*
X648978400Y23622000D03*
X648978400Y22352000D03*
X648978400Y21082000D03*
X648978400Y19812000D03*
D11*
X650883400Y17272000D03*
X652153400Y17272000D03*
%TD*%
D13*
%TO.C,Q3*%
X838325200Y13873000D03*
X840225200Y13873000D03*
X839275200Y15748000D03*
%TD*%
D14*
%TO.C,UD11*%
X828600600Y4594000D03*
X828600600Y5864000D03*
X828600600Y7134000D03*
X828600600Y8404000D03*
X828600600Y9674000D03*
X828600600Y10944000D03*
D15*
X826630600Y12994000D03*
X825360600Y12994000D03*
X824090600Y12994000D03*
X822820600Y12994000D03*
X821550600Y12994000D03*
X820280600Y12994000D03*
X819010600Y12994000D03*
X817740600Y12994000D03*
X816470600Y12994000D03*
X815200600Y12994000D03*
X813930600Y12994000D03*
D14*
X811900600Y10944000D03*
X811900600Y9674000D03*
X811900600Y8404000D03*
X811900600Y7134000D03*
X811900600Y5864000D03*
X811900600Y4594000D03*
X811900600Y3324000D03*
X811900600Y2054000D03*
X811900600Y784000D03*
X811900600Y-486000D03*
X811900600Y-1756000D03*
D15*
X813900600Y-3706000D03*
X815170600Y-3706000D03*
X816440600Y-3706000D03*
X817710600Y-3706000D03*
X818980600Y-3706000D03*
X820250600Y-3706000D03*
X821520600Y-3706000D03*
X822790600Y-3706000D03*
X824060600Y-3706000D03*
X825330600Y-3706000D03*
X826600600Y-3706000D03*
D14*
X828600600Y-1756000D03*
X828600600Y-486000D03*
X828600600Y784000D03*
X828600600Y2054000D03*
X828600600Y3324000D03*
%TD*%
D16*
%TO.C,UA13*%
X858350600Y34846400D03*
X859620600Y34846400D03*
X860890600Y34846400D03*
X862160600Y34846400D03*
D17*
X863673100Y36358900D03*
X863673100Y37628900D03*
X863673100Y38898900D03*
X863673100Y40168900D03*
X863673100Y41438900D03*
X863673100Y42708900D03*
X863673100Y43978900D03*
D16*
X862160600Y45491400D03*
X860890600Y45491400D03*
X859620600Y45491400D03*
X858350600Y45491400D03*
X857080600Y45491400D03*
X855810600Y45491400D03*
X854540600Y45491400D03*
D17*
X853028100Y43978900D03*
X853028100Y42708900D03*
X853028100Y41438900D03*
X853028100Y40168900D03*
X853028100Y38898900D03*
X853028100Y37628900D03*
X853028100Y36358900D03*
D16*
X854540600Y34846400D03*
X855810600Y34846400D03*
X857080600Y34846400D03*
%TD*%
D18*
%TO.C,RP9*%
X857207600Y-75057000D03*
X857207600Y-76327000D03*
X857207600Y-77597000D03*
X857207600Y-78867000D03*
X857207600Y-80137000D03*
X857207600Y-81407000D03*
X857207600Y-82677000D03*
X857207600Y-83947000D03*
X864132600Y-83947000D03*
X864132600Y-82677000D03*
X864132600Y-81407000D03*
X864132600Y-80137000D03*
X864132600Y-78867000D03*
X864132600Y-77597000D03*
X864132600Y-76327000D03*
X864132600Y-75057000D03*
%TD*%
D19*
%TO.C,C4*%
X655328400Y34975800D03*
X650253400Y34975800D03*
%TD*%
D13*
%TO.C,Q1*%
X641678400Y36629100D03*
X643578400Y36629100D03*
X642628400Y38504100D03*
%TD*%
D20*
%TO.C,RP11*%
X818269400Y-128625600D03*
X819539400Y-128625600D03*
X820809400Y-128625600D03*
X822079400Y-128625600D03*
X823349400Y-128625600D03*
X824619400Y-128625600D03*
X825889400Y-128625600D03*
X827159400Y-128625600D03*
X827159400Y-121700600D03*
X825889400Y-121700600D03*
X824619400Y-121700600D03*
X823349400Y-121700600D03*
X822079400Y-121700600D03*
X820809400Y-121700600D03*
X819539400Y-121700600D03*
X818269400Y-121700600D03*
%TD*%
D21*
%TO.C,RP14*%
X838538600Y-172415200D03*
X837268600Y-172415200D03*
X835998600Y-172415200D03*
X834728600Y-172415200D03*
X833458600Y-172415200D03*
X832188600Y-172415200D03*
X830918600Y-172415200D03*
X829648600Y-172415200D03*
X829648600Y-179340200D03*
X830918600Y-179340200D03*
X832188600Y-179340200D03*
X833458600Y-179340200D03*
X834728600Y-179340200D03*
X835998600Y-179340200D03*
X837268600Y-179340200D03*
X838538600Y-179340200D03*
%TD*%
D22*
%TO.C,UK2*%
X650121400Y-141267100D03*
X648851400Y-141267100D03*
X647581400Y-141267100D03*
X646311400Y-141267100D03*
X645041400Y-141267100D03*
X643771400Y-141267100D03*
X642501400Y-141267100D03*
X641231400Y-141267100D03*
X639961400Y-141267100D03*
X638691400Y-141267100D03*
X637421400Y-141267100D03*
D23*
X635571400Y-143104600D03*
X635571400Y-144374600D03*
X635571400Y-145644600D03*
X635571400Y-146914600D03*
X635571400Y-148184600D03*
X635571400Y-149454600D03*
X635571400Y-150724600D03*
X635571400Y-151994600D03*
X635571400Y-153264600D03*
X635571400Y-154534600D03*
X635571400Y-155804600D03*
X635571400Y-157074600D03*
X635571400Y-158344600D03*
X635571400Y-159614600D03*
X635571400Y-160884600D03*
X635571400Y-162154600D03*
X635571400Y-163424600D03*
X635571400Y-164694600D03*
X635571400Y-165964600D03*
X635571400Y-167234600D03*
X635571400Y-168504600D03*
D22*
X637421400Y-170604600D03*
X638691400Y-170604600D03*
X639961400Y-170604600D03*
X641231400Y-170604600D03*
X642501400Y-170604600D03*
X643771400Y-170604600D03*
X645041400Y-170604600D03*
X646311400Y-170604600D03*
X647581400Y-170604600D03*
X648851400Y-170604600D03*
X650121400Y-170604600D03*
X651391400Y-170604600D03*
X652661400Y-170604600D03*
X653931400Y-170604600D03*
X655201400Y-170604600D03*
X656471400Y-170604600D03*
X657741400Y-170604600D03*
X659011400Y-170604600D03*
X660281400Y-170604600D03*
X661551400Y-170604600D03*
X662821400Y-170604600D03*
D23*
X664621400Y-168504600D03*
X664621400Y-167234600D03*
X664621400Y-165964600D03*
X664621400Y-164694600D03*
X664621400Y-163424600D03*
X664621400Y-162154600D03*
X664621400Y-160884600D03*
X664621400Y-159614600D03*
X664621400Y-158344600D03*
X664621400Y-157074600D03*
X664621400Y-155804600D03*
X664621400Y-154534600D03*
X664621400Y-153264600D03*
X664621400Y-151994600D03*
X664621400Y-150724600D03*
X664621400Y-149454600D03*
X664621400Y-148184600D03*
X664621400Y-146914600D03*
X664621400Y-145644600D03*
X664621400Y-144374600D03*
X664621400Y-143104600D03*
D22*
X662821400Y-141267100D03*
X661551400Y-141267100D03*
X660281400Y-141267100D03*
X659011400Y-141267100D03*
X657741400Y-141267100D03*
X656471400Y-141267100D03*
X655201400Y-141267100D03*
X653931400Y-141267100D03*
X652661400Y-141267100D03*
X651391400Y-141267100D03*
%TD*%
D24*
%TO.C,C1*%
X746666800Y51689000D03*
X741741800Y51689000D03*
%TD*%
D25*
%TO.C,D1*%
X820543000Y52857400D03*
X825343000Y52857400D03*
%TD*%
D26*
%TO.C,RP1*%
X680042600Y40689000D03*
X681312600Y40689000D03*
X682582600Y40689000D03*
X683852600Y40689000D03*
X685122600Y40689000D03*
X686392600Y40689000D03*
X687662600Y40689000D03*
X688932600Y40689000D03*
X690202600Y40689000D03*
X691472600Y40689000D03*
X691472600Y49989000D03*
X690202600Y49989000D03*
X688932600Y49989000D03*
X687662600Y49989000D03*
X686392600Y49989000D03*
X685122600Y49989000D03*
X683852600Y49989000D03*
X682582600Y49989000D03*
X681312600Y49989000D03*
X680042600Y49989000D03*
%TD*%
D27*
%TO.C,C16*%
X621786700Y-104876600D03*
X628011700Y-104876600D03*
%TD*%
D26*
%TO.C,RP2*%
X697797200Y40687200D03*
X699067200Y40687200D03*
X700337200Y40687200D03*
X701607200Y40687200D03*
X702877200Y40687200D03*
X704147200Y40687200D03*
X705417200Y40687200D03*
X706687200Y40687200D03*
X707957200Y40687200D03*
X709227200Y40687200D03*
X709227200Y49987200D03*
X707957200Y49987200D03*
X706687200Y49987200D03*
X705417200Y49987200D03*
X704147200Y49987200D03*
X702877200Y49987200D03*
X701607200Y49987200D03*
X700337200Y49987200D03*
X699067200Y49987200D03*
X697797200Y49987200D03*
%TD*%
%TO.C,UJ7*%
X739631000Y-134649000D03*
X740901000Y-134649000D03*
X742171000Y-134649000D03*
X743441000Y-134649000D03*
X744711000Y-134649000D03*
X745981000Y-134649000D03*
X747251000Y-134649000D03*
X748521000Y-134649000D03*
X749791000Y-134649000D03*
X751061000Y-134649000D03*
X751061000Y-125349000D03*
X749791000Y-125349000D03*
X748521000Y-125349000D03*
X747251000Y-125349000D03*
X745981000Y-125349000D03*
X744711000Y-125349000D03*
X743441000Y-125349000D03*
X742171000Y-125349000D03*
X740901000Y-125349000D03*
X739631000Y-125349000D03*
%TD*%
D27*
%TO.C,C9*%
X665017500Y9677400D03*
X671242500Y9677400D03*
%TD*%
D10*
%TO.C,F1*%
X649562600Y45161200D03*
X643212600Y45161200D03*
%TD*%
D28*
%TO.C,U11*%
X732826800Y47167800D03*
X732826800Y45897800D03*
X732826800Y44627800D03*
X732826800Y43357800D03*
X737776800Y43357800D03*
X737776800Y44627800D03*
X737776800Y45897800D03*
X737776800Y47167800D03*
%TD*%
D17*
%TO.C,UK14*%
X871888800Y-160756600D03*
X871888800Y-162026600D03*
X871888800Y-163296600D03*
D16*
X873401300Y-164809100D03*
X874671300Y-164809100D03*
X875941300Y-164809100D03*
X877211300Y-164809100D03*
X878481300Y-164809100D03*
D17*
X879993800Y-163296600D03*
X879993800Y-162026600D03*
X879993800Y-160756600D03*
X879993800Y-159486600D03*
X879993800Y-158216600D03*
D16*
X878481300Y-156704100D03*
X877211300Y-156704100D03*
X875941300Y-156704100D03*
X874671300Y-156704100D03*
X873401300Y-156704100D03*
D17*
X871888800Y-158216600D03*
X871888800Y-159486600D03*
%TD*%
D29*
%TO.C,RP12*%
X798321200Y-152400000D03*
X798321200Y-151130000D03*
X798321200Y-149860000D03*
X798321200Y-148590000D03*
X798321200Y-147320000D03*
X798321200Y-146050000D03*
X798321200Y-144780000D03*
X798321200Y-143510000D03*
X791396200Y-143510000D03*
X791396200Y-144780000D03*
X791396200Y-146050000D03*
X791396200Y-147320000D03*
X791396200Y-148590000D03*
X791396200Y-149860000D03*
X791396200Y-151130000D03*
X791396200Y-152400000D03*
%TD*%
D30*
%TO.C,C11*%
X857893400Y8153400D03*
X862818400Y8153400D03*
%TD*%
D28*
%TO.C,UE13*%
X848241400Y762000D03*
X848241400Y-508000D03*
X848241400Y-1778000D03*
X848241400Y-3048000D03*
X848241400Y-4318000D03*
X848241400Y-5588000D03*
X848241400Y-6858000D03*
X853191400Y-6858000D03*
X853191400Y-5588000D03*
X853191400Y-4318000D03*
X853191400Y-3048000D03*
X853191400Y-1778000D03*
X853191400Y-508000D03*
X853191400Y762000D03*
%TD*%
%TO.C,UD13*%
X848241400Y13462000D03*
X848241400Y12192000D03*
X848241400Y10922000D03*
X848241400Y9652000D03*
X848241400Y8382000D03*
X848241400Y7112000D03*
X848241400Y5842000D03*
X853191400Y5842000D03*
X853191400Y7112000D03*
X853191400Y8382000D03*
X853191400Y9652000D03*
X853191400Y10922000D03*
X853191400Y12192000D03*
X853191400Y13462000D03*
%TD*%
D13*
%TO.C,D6*%
X857400600Y1069100D03*
X859300600Y1069100D03*
X858350600Y2944100D03*
%TD*%
D31*
%TO.C,UH1*%
X630639600Y-112572800D03*
X629369600Y-112572800D03*
X628099600Y-112572800D03*
X626829600Y-112572800D03*
X625559600Y-112572800D03*
X624289600Y-112572800D03*
X623019600Y-112572800D03*
X621749600Y-112572800D03*
X620479600Y-112572800D03*
X619209600Y-112572800D03*
X619209600Y-121872800D03*
X620479600Y-121872800D03*
X621749600Y-121872800D03*
X623019600Y-121872800D03*
X624289600Y-121872800D03*
X625559600Y-121872800D03*
X626829600Y-121872800D03*
X628099600Y-121872800D03*
X629369600Y-121872800D03*
X630639600Y-121872800D03*
%TD*%
D15*
%TO.C,UF4*%
X693389600Y-50795400D03*
X694659600Y-50795400D03*
X695929600Y-50795400D03*
X697199600Y-50795400D03*
X698469600Y-50795400D03*
X699739600Y-50795400D03*
X701009600Y-50795400D03*
X702279600Y-50795400D03*
X703549600Y-50795400D03*
D14*
X705539600Y-48805400D03*
X705539600Y-47535400D03*
X705539600Y-46265400D03*
X705539600Y-44995400D03*
X705539600Y-43725400D03*
X705539600Y-42455400D03*
X705539600Y-41185400D03*
X705539600Y-39915400D03*
X705539600Y-38645400D03*
X705539600Y-37375400D03*
X705539600Y-36105400D03*
X705539600Y-34835400D03*
X705539600Y-33565400D03*
X705539600Y-32295400D03*
X705539600Y-31025400D03*
X705539600Y-29755400D03*
X705539600Y-28485400D03*
D15*
X703549600Y-26495400D03*
X702279600Y-26495400D03*
X701009600Y-26495400D03*
X699739600Y-26495400D03*
X698469600Y-26495400D03*
X697199600Y-26495400D03*
X695929600Y-26495400D03*
X694659600Y-26495400D03*
X693389600Y-26495400D03*
X692119600Y-26495400D03*
X690849600Y-26495400D03*
X689579600Y-26495400D03*
X688309600Y-26495400D03*
X687039600Y-26495400D03*
X685769600Y-26495400D03*
X684499600Y-26495400D03*
X683229600Y-26495400D03*
D14*
X681239600Y-28495400D03*
X681239600Y-29765400D03*
X681239600Y-31035400D03*
X681239600Y-32305400D03*
X681239600Y-33575400D03*
X681239600Y-34845400D03*
X681239600Y-36115400D03*
X681239600Y-37385400D03*
X681239600Y-38655400D03*
X681239600Y-39925400D03*
X681239600Y-41195400D03*
X681239600Y-42465400D03*
X681239600Y-43735400D03*
X681239600Y-45005400D03*
X681239600Y-46275400D03*
X681239600Y-47545400D03*
X681239600Y-48815400D03*
D15*
X683229600Y-50795400D03*
X684499600Y-50795400D03*
X685769600Y-50795400D03*
X687039600Y-50795400D03*
X688309600Y-50795400D03*
X689579600Y-50795400D03*
X690849600Y-50795400D03*
X692119600Y-50795400D03*
%TD*%
D32*
%TO.C,BT1*%
X879508800Y-184435200D03*
X879508800Y-213735200D03*
%TD*%
D29*
%TO.C,RP13*%
X798321200Y-165100000D03*
X798321200Y-163830000D03*
X798321200Y-162560000D03*
X798321200Y-161290000D03*
X798321200Y-160020000D03*
X798321200Y-158750000D03*
X798321200Y-157480000D03*
X798321200Y-156210000D03*
X791396200Y-156210000D03*
X791396200Y-157480000D03*
X791396200Y-158750000D03*
X791396200Y-160020000D03*
X791396200Y-161290000D03*
X791396200Y-162560000D03*
X791396200Y-163830000D03*
X791396200Y-165100000D03*
%TD*%
D15*
%TO.C,UC6*%
X723806800Y8947400D03*
X725076800Y8947400D03*
X726346800Y8947400D03*
X727616800Y8947400D03*
X728886800Y8947400D03*
X730156800Y8947400D03*
D14*
X732206800Y10917400D03*
X732206800Y12187400D03*
X732206800Y13457400D03*
X732206800Y14727400D03*
X732206800Y15997400D03*
X732206800Y17267400D03*
X732206800Y18537400D03*
X732206800Y19807400D03*
X732206800Y21077400D03*
X732206800Y22347400D03*
X732206800Y23617400D03*
D15*
X730156800Y25647400D03*
X728886800Y25647400D03*
X727616800Y25647400D03*
X726346800Y25647400D03*
X725076800Y25647400D03*
X723806800Y25647400D03*
X722536800Y25647400D03*
X721266800Y25647400D03*
X719996800Y25647400D03*
X718726800Y25647400D03*
X717456800Y25647400D03*
D14*
X715506800Y23647400D03*
X715506800Y22377400D03*
X715506800Y21107400D03*
X715506800Y19837400D03*
X715506800Y18567400D03*
X715506800Y17297400D03*
X715506800Y16027400D03*
X715506800Y14757400D03*
X715506800Y13487400D03*
X715506800Y12217400D03*
X715506800Y10947400D03*
D15*
X717456800Y8947400D03*
X718726800Y8947400D03*
X719996800Y8947400D03*
X721266800Y8947400D03*
X722536800Y8947400D03*
%TD*%
D27*
%TO.C,C6*%
X875470200Y37465000D03*
X881695200Y37465000D03*
%TD*%
D21*
%TO.C,RP4*%
X768866400Y14630400D03*
X767596400Y14630400D03*
X766326400Y14630400D03*
X765056400Y14630400D03*
X763786400Y14630400D03*
X762516400Y14630400D03*
X761246400Y14630400D03*
X759976400Y14630400D03*
X759976400Y7705400D03*
X761246400Y7705400D03*
X762516400Y7705400D03*
X763786400Y7705400D03*
X765056400Y7705400D03*
X766326400Y7705400D03*
X767596400Y7705400D03*
X768866400Y7705400D03*
%TD*%
D20*
%TO.C,RP5*%
X630004600Y-30648600D03*
X631274600Y-30648600D03*
X632544600Y-30648600D03*
X633814600Y-30648600D03*
X635084600Y-30648600D03*
X636354600Y-30648600D03*
X637624600Y-30648600D03*
X638894600Y-30648600D03*
X638894600Y-23723600D03*
X637624600Y-23723600D03*
X636354600Y-23723600D03*
X635084600Y-23723600D03*
X633814600Y-23723600D03*
X632544600Y-23723600D03*
X631274600Y-23723600D03*
X630004600Y-23723600D03*
%TD*%
D18*
%TO.C,RP8*%
X763440000Y-54457600D03*
X763440000Y-55727600D03*
X763440000Y-56997600D03*
X763440000Y-58267600D03*
X763440000Y-59537600D03*
X763440000Y-60807600D03*
X763440000Y-62077600D03*
X763440000Y-63347600D03*
X770365000Y-63347600D03*
X770365000Y-62077600D03*
X770365000Y-60807600D03*
X770365000Y-59537600D03*
X770365000Y-58267600D03*
X770365000Y-56997600D03*
X770365000Y-55727600D03*
X770365000Y-54457600D03*
%TD*%
D20*
%TO.C,RP6*%
X630004600Y-45914000D03*
X631274600Y-45914000D03*
X632544600Y-45914000D03*
X633814600Y-45914000D03*
X635084600Y-45914000D03*
X636354600Y-45914000D03*
X637624600Y-45914000D03*
X638894600Y-45914000D03*
X638894600Y-38989000D03*
X637624600Y-38989000D03*
X636354600Y-38989000D03*
X635084600Y-38989000D03*
X633814600Y-38989000D03*
X632544600Y-38989000D03*
X631274600Y-38989000D03*
X630004600Y-38989000D03*
%TD*%
D27*
%TO.C,C3*%
X668790400Y47701200D03*
X675015400Y47701200D03*
%TD*%
D13*
%TO.C,D5*%
X838315000Y18999200D03*
X840215000Y18999200D03*
X839265000Y20874200D03*
%TD*%
%TO.C,D3*%
X838325200Y29113000D03*
X840225200Y29113000D03*
X839275200Y30988000D03*
%TD*%
%TO.C,D8*%
X877608800Y-171958000D03*
X879508800Y-171958000D03*
X878558800Y-170083000D03*
%TD*%
D33*
%TO.C,UG11*%
X838437000Y-68050400D03*
X838437000Y-67410400D03*
X838437000Y-66770400D03*
X838437000Y-66130400D03*
X838437000Y-65490400D03*
X838437000Y-64850400D03*
X838437000Y-64210400D03*
X838437000Y-63570400D03*
X838437000Y-62930400D03*
X838437000Y-62290400D03*
X838437000Y-61650400D03*
X838437000Y-61010400D03*
X838437000Y-60370400D03*
X838437000Y-59730400D03*
X838437000Y-59090400D03*
X838437000Y-58450400D03*
X838437000Y-57810400D03*
D34*
X835477000Y-54850400D03*
X834837000Y-54850400D03*
X834197000Y-54850400D03*
X833557000Y-54850400D03*
X832917000Y-54850400D03*
X832277000Y-54850400D03*
X831637000Y-54850400D03*
X830997000Y-54850400D03*
X830357000Y-54850400D03*
X829717000Y-54850400D03*
X829077000Y-54850400D03*
X828437000Y-54850400D03*
X827797000Y-54850400D03*
X827157000Y-54850400D03*
X826517000Y-54850400D03*
X825877000Y-54850400D03*
X825237000Y-54850400D03*
X824597000Y-54850400D03*
X823957000Y-54850400D03*
X823317000Y-54850400D03*
X822677000Y-54850400D03*
X822037000Y-54850400D03*
X821397000Y-54850400D03*
X820757000Y-54850400D03*
X820117000Y-54850400D03*
X819477000Y-54850400D03*
X818837000Y-54850400D03*
X818197000Y-54850400D03*
X817557000Y-54850400D03*
X816917000Y-54850400D03*
X816277000Y-54850400D03*
X815637000Y-54850400D03*
X814997000Y-54850400D03*
D33*
X812037000Y-57810400D03*
X812037000Y-58450400D03*
X812037000Y-59090400D03*
X812037000Y-59730400D03*
X812037000Y-60370400D03*
X812037000Y-61010400D03*
X812037000Y-61650400D03*
X812037000Y-62290400D03*
X812037000Y-62930400D03*
X812037000Y-63570400D03*
X812037000Y-64210400D03*
X812037000Y-64850400D03*
X812037000Y-65490400D03*
X812037000Y-66130400D03*
X812037000Y-66770400D03*
X812037000Y-67410400D03*
X812037000Y-68050400D03*
X812037000Y-68690400D03*
X812037000Y-69330400D03*
X812037000Y-69970400D03*
X812037000Y-70610400D03*
X812037000Y-71250400D03*
X812037000Y-71890400D03*
X812037000Y-72530400D03*
X812037000Y-73170400D03*
X812037000Y-73810400D03*
X812037000Y-74450400D03*
X812037000Y-75090400D03*
X812037000Y-75730400D03*
X812037000Y-76370400D03*
X812037000Y-77010400D03*
X812037000Y-77650400D03*
X812037000Y-78290400D03*
D34*
X814997000Y-81250400D03*
X815637000Y-81250400D03*
X816277000Y-81250400D03*
X816917000Y-81250400D03*
X817557000Y-81250400D03*
X818197000Y-81250400D03*
X818837000Y-81250400D03*
X819477000Y-81250400D03*
X820117000Y-81250400D03*
X820757000Y-81250400D03*
X821397000Y-81250400D03*
X822037000Y-81250400D03*
X822677000Y-81250400D03*
X823317000Y-81250400D03*
X823957000Y-81250400D03*
X824597000Y-81250400D03*
X825237000Y-81250400D03*
X825877000Y-81250400D03*
X826517000Y-81250400D03*
X827157000Y-81250400D03*
X827797000Y-81250400D03*
X828437000Y-81250400D03*
X829077000Y-81250400D03*
X829717000Y-81250400D03*
X830357000Y-81250400D03*
X830997000Y-81250400D03*
X831637000Y-81250400D03*
X832277000Y-81250400D03*
X832917000Y-81250400D03*
X833557000Y-81250400D03*
X834197000Y-81250400D03*
X834837000Y-81250400D03*
X835477000Y-81250400D03*
D33*
X838437000Y-78290400D03*
X838437000Y-77650400D03*
X838437000Y-77010400D03*
X838437000Y-76370400D03*
X838437000Y-75730400D03*
X838437000Y-75090400D03*
X838437000Y-74450400D03*
X838437000Y-73810400D03*
X838437000Y-73170400D03*
X838437000Y-72530400D03*
X838437000Y-71890400D03*
X838437000Y-71250400D03*
X838437000Y-70610400D03*
X838437000Y-69970400D03*
X838437000Y-69330400D03*
X838437000Y-68690400D03*
%TD*%
D30*
%TO.C,C12*%
X837446400Y-863600D03*
X842371400Y-863600D03*
%TD*%
D20*
%TO.C,RP10*%
X803029400Y-128616400D03*
X804299400Y-128616400D03*
X805569400Y-128616400D03*
X806839400Y-128616400D03*
X808109400Y-128616400D03*
X809379400Y-128616400D03*
X810649400Y-128616400D03*
X811919400Y-128616400D03*
X811919400Y-121691400D03*
X810649400Y-121691400D03*
X809379400Y-121691400D03*
X808109400Y-121691400D03*
X806839400Y-121691400D03*
X805569400Y-121691400D03*
X804299400Y-121691400D03*
X803029400Y-121691400D03*
%TD*%
D27*
%TO.C,C2*%
X656113800Y47701200D03*
X662338800Y47701200D03*
%TD*%
D26*
%TO.C,UJ8*%
X757360200Y-134649000D03*
X758630200Y-134649000D03*
X759900200Y-134649000D03*
X761170200Y-134649000D03*
X762440200Y-134649000D03*
X763710200Y-134649000D03*
X764980200Y-134649000D03*
X766250200Y-134649000D03*
X767520200Y-134649000D03*
X768790200Y-134649000D03*
X768790200Y-125349000D03*
X767520200Y-125349000D03*
X766250200Y-125349000D03*
X764980200Y-125349000D03*
X763710200Y-125349000D03*
X762440200Y-125349000D03*
X761170200Y-125349000D03*
X759900200Y-125349000D03*
X758630200Y-125349000D03*
X757360200Y-125349000D03*
%TD*%
D35*
%TO.C,UA4*%
X681414200Y27663600D03*
X682684200Y27663600D03*
X683954200Y27663600D03*
X685224200Y27663600D03*
X686494200Y27663600D03*
X687764200Y27663600D03*
X689034200Y27663600D03*
X690304200Y27663600D03*
X690304200Y32613600D03*
X689034200Y32613600D03*
X687764200Y32613600D03*
X686494200Y32613600D03*
X685224200Y32613600D03*
X683954200Y32613600D03*
X682684200Y32613600D03*
X681414200Y32613600D03*
%TD*%
D20*
%TO.C,RP3*%
X836201800Y44323000D03*
X837471800Y44323000D03*
X838741800Y44323000D03*
X840011800Y44323000D03*
X841281800Y44323000D03*
X842551800Y44323000D03*
X843821800Y44323000D03*
X845091800Y44323000D03*
X845091800Y51248000D03*
X843821800Y51248000D03*
X842551800Y51248000D03*
X841281800Y51248000D03*
X840011800Y51248000D03*
X838741800Y51248000D03*
X837471800Y51248000D03*
X836201800Y51248000D03*
%TD*%
D17*
%TO.C,UC4*%
X689835500Y14743500D03*
X689835500Y16013500D03*
X689835500Y17283500D03*
D16*
X688323000Y18796000D03*
X687053000Y18796000D03*
X685783000Y18796000D03*
X684513000Y18796000D03*
X683243000Y18796000D03*
D17*
X681730500Y17283500D03*
X681730500Y16013500D03*
X681730500Y14743500D03*
X681730500Y13473500D03*
X681730500Y12203500D03*
D16*
X683243000Y10691000D03*
X684513000Y10691000D03*
X685783000Y10691000D03*
X687053000Y10691000D03*
X688323000Y10691000D03*
D17*
X689835500Y12203500D03*
X689835500Y13473500D03*
%TD*%
D15*
%TO.C,UE5*%
X695900800Y-16427200D03*
X697170800Y-16427200D03*
X698440800Y-16427200D03*
X699710800Y-16427200D03*
X700980800Y-16427200D03*
X702250800Y-16427200D03*
D14*
X704300800Y-14457200D03*
X704300800Y-13187200D03*
X704300800Y-11917200D03*
X704300800Y-10647200D03*
X704300800Y-9377200D03*
X704300800Y-8107200D03*
X704300800Y-6837200D03*
X704300800Y-5567200D03*
X704300800Y-4297200D03*
X704300800Y-3027200D03*
X704300800Y-1757200D03*
D15*
X702250800Y272800D03*
X700980800Y272800D03*
X699710800Y272800D03*
X698440800Y272800D03*
X697170800Y272800D03*
X695900800Y272800D03*
X694630800Y272800D03*
X693360800Y272800D03*
X692090800Y272800D03*
X690820800Y272800D03*
X689550800Y272800D03*
D14*
X687600800Y-1727200D03*
X687600800Y-2997200D03*
X687600800Y-4267200D03*
X687600800Y-5537200D03*
X687600800Y-6807200D03*
X687600800Y-8077200D03*
X687600800Y-9347200D03*
X687600800Y-10617200D03*
X687600800Y-11887200D03*
X687600800Y-13157200D03*
X687600800Y-14427200D03*
D15*
X689550800Y-16427200D03*
X690820800Y-16427200D03*
X692090800Y-16427200D03*
X693360800Y-16427200D03*
X694630800Y-16427200D03*
%TD*%
D13*
%TO.C,D4*%
X838325200Y24058400D03*
X840225200Y24058400D03*
X839275200Y25933400D03*
%TD*%
D31*
%TO.C,ZRP4*%
X770136400Y14681200D03*
X768866400Y14681200D03*
X767596400Y14681200D03*
X766326400Y14681200D03*
X765056400Y14681200D03*
X763786400Y14681200D03*
X762516400Y14681200D03*
X761246400Y14681200D03*
X759976400Y14681200D03*
X758706400Y14681200D03*
X758706400Y5381200D03*
X759976400Y5381200D03*
X761246400Y5381200D03*
X762516400Y5381200D03*
X763786400Y5381200D03*
X765056400Y5381200D03*
X766326400Y5381200D03*
X767596400Y5381200D03*
X768866400Y5381200D03*
X770136400Y5381200D03*
%TD*%
D36*
%TO.C,ZL1*%
X624962000Y41019200D03*
X627502000Y41019200D03*
X630042000Y41019200D03*
X632582000Y41019200D03*
X632582000Y52019200D03*
X630042000Y52019200D03*
X627502000Y52019200D03*
X624962000Y52019200D03*
%TD*%
D37*
%TO.C,C18*%
X862645200Y-112496600D03*
X856420200Y-112496600D03*
%TD*%
D15*
%TO.C,UH5*%
X698432200Y-107927800D03*
X697162200Y-107927800D03*
X695892200Y-107927800D03*
X694622200Y-107927800D03*
X693352200Y-107927800D03*
X692082200Y-107927800D03*
X690812200Y-107927800D03*
X689542200Y-107927800D03*
X688272200Y-107927800D03*
D14*
X686282200Y-109917800D03*
X686282200Y-111187800D03*
X686282200Y-112457800D03*
X686282200Y-113727800D03*
X686282200Y-114997800D03*
X686282200Y-116267800D03*
X686282200Y-117537800D03*
X686282200Y-118807800D03*
X686282200Y-120077800D03*
X686282200Y-121347800D03*
X686282200Y-122617800D03*
X686282200Y-123887800D03*
X686282200Y-125157800D03*
X686282200Y-126427800D03*
X686282200Y-127697800D03*
X686282200Y-128967800D03*
X686282200Y-130237800D03*
D15*
X688272200Y-132227800D03*
X689542200Y-132227800D03*
X690812200Y-132227800D03*
X692082200Y-132227800D03*
X693352200Y-132227800D03*
X694622200Y-132227800D03*
X695892200Y-132227800D03*
X697162200Y-132227800D03*
X698432200Y-132227800D03*
X699702200Y-132227800D03*
X700972200Y-132227800D03*
X702242200Y-132227800D03*
X703512200Y-132227800D03*
X704782200Y-132227800D03*
X706052200Y-132227800D03*
X707322200Y-132227800D03*
X708592200Y-132227800D03*
D14*
X710582200Y-130227800D03*
X710582200Y-128957800D03*
X710582200Y-127687800D03*
X710582200Y-126417800D03*
X710582200Y-125147800D03*
X710582200Y-123877800D03*
X710582200Y-122607800D03*
X710582200Y-121337800D03*
X710582200Y-120067800D03*
X710582200Y-118797800D03*
X710582200Y-117527800D03*
X710582200Y-116257800D03*
X710582200Y-114987800D03*
X710582200Y-113717800D03*
X710582200Y-112447800D03*
X710582200Y-111177800D03*
X710582200Y-109907800D03*
D15*
X708592200Y-107927800D03*
X707322200Y-107927800D03*
X706052200Y-107927800D03*
X704782200Y-107927800D03*
X703512200Y-107927800D03*
X702242200Y-107927800D03*
X700972200Y-107927800D03*
X699702200Y-107927800D03*
%TD*%
D26*
%TO.C,UJ9*%
X775140200Y-134649000D03*
X776410200Y-134649000D03*
X777680200Y-134649000D03*
X778950200Y-134649000D03*
X780220200Y-134649000D03*
X781490200Y-134649000D03*
X782760200Y-134649000D03*
X784030200Y-134649000D03*
X785300200Y-134649000D03*
X786570200Y-134649000D03*
X786570200Y-125349000D03*
X785300200Y-125349000D03*
X784030200Y-125349000D03*
X782760200Y-125349000D03*
X781490200Y-125349000D03*
X780220200Y-125349000D03*
X778950200Y-125349000D03*
X777680200Y-125349000D03*
X776410200Y-125349000D03*
X775140200Y-125349000D03*
%TD*%
D27*
%TO.C,C10*%
X836049400Y8432800D03*
X842274400Y8432800D03*
%TD*%
D38*
%TO.C,UE9*%
X794544600Y-431800D03*
X793744600Y-431800D03*
X792944600Y-431800D03*
X792144600Y-431800D03*
X791344600Y-431800D03*
X790544600Y-431800D03*
X789744600Y-431800D03*
X788944600Y-431800D03*
X788144600Y-431800D03*
X787344600Y-431800D03*
X786544600Y-431800D03*
X785744600Y-431800D03*
X784944600Y-431800D03*
X784144600Y-431800D03*
X783344600Y-431800D03*
X782544600Y-431800D03*
X781744600Y-431800D03*
X780944600Y-431800D03*
X780144600Y-431800D03*
X779344600Y-431800D03*
X778544600Y-431800D03*
X777744600Y-431800D03*
X776944600Y-431800D03*
X776144600Y-431800D03*
X775344600Y-431800D03*
X774544600Y-431800D03*
X773744600Y-431800D03*
X772944600Y-431800D03*
X772144600Y-431800D03*
X771344600Y-431800D03*
X770544600Y-431800D03*
X769744600Y-431800D03*
D39*
X766844600Y-3331800D03*
X766844600Y-4131800D03*
X766844600Y-4931800D03*
X766844600Y-5731800D03*
X766844600Y-6531800D03*
X766844600Y-7331800D03*
X766844600Y-8131800D03*
X766844600Y-8931800D03*
X766844600Y-9731800D03*
X766844600Y-10531800D03*
X766844600Y-11331800D03*
X766844600Y-12131800D03*
X766844600Y-12931800D03*
X766844600Y-13731800D03*
X766844600Y-14531800D03*
X766844600Y-15331800D03*
X766844600Y-16131800D03*
X766844600Y-16931800D03*
X766844600Y-17731800D03*
X766844600Y-18531800D03*
X766844600Y-19331800D03*
X766844600Y-20131800D03*
X766844600Y-20931800D03*
X766844600Y-21731800D03*
X766844600Y-22531800D03*
X766844600Y-23331800D03*
X766844600Y-24131800D03*
X766844600Y-24931800D03*
X766844600Y-25731800D03*
X766844600Y-26531800D03*
X766844600Y-27331800D03*
X766844600Y-28131800D03*
D38*
X769744600Y-31031800D03*
X770544600Y-31031800D03*
X771344600Y-31031800D03*
X772144600Y-31031800D03*
X772944600Y-31031800D03*
X773744600Y-31031800D03*
X774544600Y-31031800D03*
X775344600Y-31031800D03*
X776144600Y-31031800D03*
X776944600Y-31031800D03*
X777744600Y-31031800D03*
X778544600Y-31031800D03*
X779344600Y-31031800D03*
X780144600Y-31031800D03*
X780944600Y-31031800D03*
X781744600Y-31031800D03*
X782544600Y-31031800D03*
X783344600Y-31031800D03*
X784144600Y-31031800D03*
X784944600Y-31031800D03*
X785744600Y-31031800D03*
X786544600Y-31031800D03*
X787344600Y-31031800D03*
X788144600Y-31031800D03*
X788944600Y-31031800D03*
X789744600Y-31031800D03*
X790544600Y-31031800D03*
X791344600Y-31031800D03*
X792144600Y-31031800D03*
X792944600Y-31031800D03*
X793744600Y-31031800D03*
X794544600Y-31031800D03*
D39*
X797444600Y-28131800D03*
X797444600Y-27331800D03*
X797444600Y-26531800D03*
X797444600Y-25731800D03*
X797444600Y-24931800D03*
X797444600Y-24131800D03*
X797444600Y-23331800D03*
X797444600Y-22531800D03*
X797444600Y-21731800D03*
X797444600Y-20931800D03*
X797444600Y-20131800D03*
X797444600Y-19331800D03*
X797444600Y-18531800D03*
X797444600Y-17731800D03*
X797444600Y-16931800D03*
X797444600Y-16131800D03*
X797444600Y-15331800D03*
X797444600Y-14531800D03*
X797444600Y-13731800D03*
X797444600Y-12931800D03*
X797444600Y-12131800D03*
X797444600Y-11331800D03*
X797444600Y-10531800D03*
X797444600Y-9731800D03*
X797444600Y-8931800D03*
X797444600Y-8131800D03*
X797444600Y-7331800D03*
X797444600Y-6531800D03*
X797444600Y-5731800D03*
X797444600Y-4931800D03*
X797444600Y-4131800D03*
X797444600Y-3331800D03*
%TD*%
D24*
%TO.C,C7*%
X756801400Y23749000D03*
X751876400Y23749000D03*
%TD*%
D27*
%TO.C,C5*%
X668790400Y36347400D03*
X675015400Y36347400D03*
%TD*%
D40*
%TO.C,Q2*%
X624956000Y17347400D03*
D41*
X625711000Y21972400D03*
X628761000Y21972400D03*
X625711000Y25322400D03*
X628761000Y25322400D03*
D40*
X629516000Y17347400D03*
%TD*%
D38*
%TO.C,UK11*%
X835079800Y-135327200D03*
X834279800Y-135327200D03*
X833479800Y-135327200D03*
X832679800Y-135327200D03*
X831879800Y-135327200D03*
X831079800Y-135327200D03*
X830279800Y-135327200D03*
X829479800Y-135327200D03*
X828679800Y-135327200D03*
X827879800Y-135327200D03*
X827079800Y-135327200D03*
X826279800Y-135327200D03*
X825479800Y-135327200D03*
X824679800Y-135327200D03*
X823879800Y-135327200D03*
X823079800Y-135327200D03*
X822279800Y-135327200D03*
X821479800Y-135327200D03*
X820679800Y-135327200D03*
X819879800Y-135327200D03*
X819079800Y-135327200D03*
X818279800Y-135327200D03*
X817479800Y-135327200D03*
X816679800Y-135327200D03*
X815879800Y-135327200D03*
X815079800Y-135327200D03*
X814279800Y-135327200D03*
X813479800Y-135327200D03*
X812679800Y-135327200D03*
X811879800Y-135327200D03*
X811079800Y-135327200D03*
X810279800Y-135327200D03*
D39*
X807379800Y-138227200D03*
X807379800Y-139027200D03*
X807379800Y-139827200D03*
X807379800Y-140627200D03*
X807379800Y-141427200D03*
X807379800Y-142227200D03*
X807379800Y-143027200D03*
X807379800Y-143827200D03*
X807379800Y-144627200D03*
X807379800Y-145427200D03*
X807379800Y-146227200D03*
X807379800Y-147027200D03*
X807379800Y-147827200D03*
X807379800Y-148627200D03*
X807379800Y-149427200D03*
X807379800Y-150227200D03*
X807379800Y-151027200D03*
X807379800Y-151827200D03*
X807379800Y-152627200D03*
X807379800Y-153427200D03*
X807379800Y-154227200D03*
X807379800Y-155027200D03*
X807379800Y-155827200D03*
X807379800Y-156627200D03*
X807379800Y-157427200D03*
X807379800Y-158227200D03*
X807379800Y-159027200D03*
X807379800Y-159827200D03*
X807379800Y-160627200D03*
X807379800Y-161427200D03*
X807379800Y-162227200D03*
X807379800Y-163027200D03*
D38*
X810279800Y-165927200D03*
X811079800Y-165927200D03*
X811879800Y-165927200D03*
X812679800Y-165927200D03*
X813479800Y-165927200D03*
X814279800Y-165927200D03*
X815079800Y-165927200D03*
X815879800Y-165927200D03*
X816679800Y-165927200D03*
X817479800Y-165927200D03*
X818279800Y-165927200D03*
X819079800Y-165927200D03*
X819879800Y-165927200D03*
X820679800Y-165927200D03*
X821479800Y-165927200D03*
X822279800Y-165927200D03*
X823079800Y-165927200D03*
X823879800Y-165927200D03*
X824679800Y-165927200D03*
X825479800Y-165927200D03*
X826279800Y-165927200D03*
X827079800Y-165927200D03*
X827879800Y-165927200D03*
X828679800Y-165927200D03*
X829479800Y-165927200D03*
X830279800Y-165927200D03*
X831079800Y-165927200D03*
X831879800Y-165927200D03*
X832679800Y-165927200D03*
X833479800Y-165927200D03*
X834279800Y-165927200D03*
X835079800Y-165927200D03*
D39*
X837979800Y-163027200D03*
X837979800Y-162227200D03*
X837979800Y-161427200D03*
X837979800Y-160627200D03*
X837979800Y-159827200D03*
X837979800Y-159027200D03*
X837979800Y-158227200D03*
X837979800Y-157427200D03*
X837979800Y-156627200D03*
X837979800Y-155827200D03*
X837979800Y-155027200D03*
X837979800Y-154227200D03*
X837979800Y-153427200D03*
X837979800Y-152627200D03*
X837979800Y-151827200D03*
X837979800Y-151027200D03*
X837979800Y-150227200D03*
X837979800Y-149427200D03*
X837979800Y-148627200D03*
X837979800Y-147827200D03*
X837979800Y-147027200D03*
X837979800Y-146227200D03*
X837979800Y-145427200D03*
X837979800Y-144627200D03*
X837979800Y-143827200D03*
X837979800Y-143027200D03*
X837979800Y-142227200D03*
X837979800Y-141427200D03*
X837979800Y-140627200D03*
X837979800Y-139827200D03*
X837979800Y-139027200D03*
X837979800Y-138227200D03*
%TD*%
D13*
%TO.C,D7*%
X872640600Y-171955700D03*
X874540600Y-171955700D03*
X873590600Y-170080700D03*
%TD*%
D15*
%TO.C,UA7*%
X751746800Y29372400D03*
X753016800Y29372400D03*
X754286800Y29372400D03*
X755556800Y29372400D03*
X756826800Y29372400D03*
X758096800Y29372400D03*
D14*
X760146800Y31342400D03*
X760146800Y32612400D03*
X760146800Y33882400D03*
X760146800Y35152400D03*
X760146800Y36422400D03*
X760146800Y37692400D03*
X760146800Y38962400D03*
X760146800Y40232400D03*
X760146800Y41502400D03*
X760146800Y42772400D03*
X760146800Y44042400D03*
D15*
X758096800Y46072400D03*
X756826800Y46072400D03*
X755556800Y46072400D03*
X754286800Y46072400D03*
X753016800Y46072400D03*
X751746800Y46072400D03*
X750476800Y46072400D03*
X749206800Y46072400D03*
X747936800Y46072400D03*
X746666800Y46072400D03*
X745396800Y46072400D03*
D14*
X743446800Y44072400D03*
X743446800Y42802400D03*
X743446800Y41532400D03*
X743446800Y40262400D03*
X743446800Y38992400D03*
X743446800Y37722400D03*
X743446800Y36452400D03*
X743446800Y35182400D03*
X743446800Y33912400D03*
X743446800Y32642400D03*
X743446800Y31372400D03*
D15*
X745396800Y29372400D03*
X746666800Y29372400D03*
X747936800Y29372400D03*
X749206800Y29372400D03*
X750476800Y29372400D03*
%TD*%
%TO.C,UM3*%
X662770600Y-216289800D03*
X664040600Y-216289800D03*
X665310600Y-216289800D03*
X666580600Y-216289800D03*
X667850600Y-216289800D03*
X669120600Y-216289800D03*
X670390600Y-216289800D03*
X671660600Y-216289800D03*
X672930600Y-216289800D03*
D14*
X674920600Y-214299800D03*
X674920600Y-213029800D03*
X674920600Y-211759800D03*
X674920600Y-210489800D03*
X674920600Y-209219800D03*
X674920600Y-207949800D03*
X674920600Y-206679800D03*
X674920600Y-205409800D03*
X674920600Y-204139800D03*
X674920600Y-202869800D03*
X674920600Y-201599800D03*
X674920600Y-200329800D03*
X674920600Y-199059800D03*
X674920600Y-197789800D03*
X674920600Y-196519800D03*
X674920600Y-195249800D03*
X674920600Y-193979800D03*
D15*
X672930600Y-191989800D03*
X671660600Y-191989800D03*
X670390600Y-191989800D03*
X669120600Y-191989800D03*
X667850600Y-191989800D03*
X666580600Y-191989800D03*
X665310600Y-191989800D03*
X664040600Y-191989800D03*
X662770600Y-191989800D03*
X661500600Y-191989800D03*
X660230600Y-191989800D03*
X658960600Y-191989800D03*
X657690600Y-191989800D03*
X656420600Y-191989800D03*
X655150600Y-191989800D03*
X653880600Y-191989800D03*
X652610600Y-191989800D03*
D14*
X650620600Y-193989800D03*
X650620600Y-195259800D03*
X650620600Y-196529800D03*
X650620600Y-197799800D03*
X650620600Y-199069800D03*
X650620600Y-200339800D03*
X650620600Y-201609800D03*
X650620600Y-202879800D03*
X650620600Y-204149800D03*
X650620600Y-205419800D03*
X650620600Y-206689800D03*
X650620600Y-207959800D03*
X650620600Y-209229800D03*
X650620600Y-210499800D03*
X650620600Y-211769800D03*
X650620600Y-213039800D03*
X650620600Y-214309800D03*
D15*
X652610600Y-216289800D03*
X653880600Y-216289800D03*
X655150600Y-216289800D03*
X656420600Y-216289800D03*
X657690600Y-216289800D03*
X658960600Y-216289800D03*
X660230600Y-216289800D03*
X661500600Y-216289800D03*
%TD*%
D26*
%TO.C,UH3*%
X664878800Y-121872800D03*
X666148800Y-121872800D03*
X667418800Y-121872800D03*
X668688800Y-121872800D03*
X669958800Y-121872800D03*
X671228800Y-121872800D03*
X672498800Y-121872800D03*
X673768800Y-121872800D03*
X675038800Y-121872800D03*
X676308800Y-121872800D03*
X676308800Y-112572800D03*
X675038800Y-112572800D03*
X673768800Y-112572800D03*
X672498800Y-112572800D03*
X671228800Y-112572800D03*
X669958800Y-112572800D03*
X668688800Y-112572800D03*
X667418800Y-112572800D03*
X666148800Y-112572800D03*
X664878800Y-112572800D03*
%TD*%
%TO.C,UH2*%
X647124200Y-121872800D03*
X648394200Y-121872800D03*
X649664200Y-121872800D03*
X650934200Y-121872800D03*
X652204200Y-121872800D03*
X653474200Y-121872800D03*
X654744200Y-121872800D03*
X656014200Y-121872800D03*
X657284200Y-121872800D03*
X658554200Y-121872800D03*
X658554200Y-112572800D03*
X657284200Y-112572800D03*
X656014200Y-112572800D03*
X654744200Y-112572800D03*
X653474200Y-112572800D03*
X652204200Y-112572800D03*
X650934200Y-112572800D03*
X649664200Y-112572800D03*
X648394200Y-112572800D03*
X647124200Y-112572800D03*
%TD*%
D14*
%TO.C,UA10*%
X786541400Y37693600D03*
X786541400Y36423600D03*
X786541400Y35153600D03*
X786541400Y33883600D03*
X786541400Y32613600D03*
X786541400Y31343600D03*
D15*
X788511400Y29293600D03*
X789781400Y29293600D03*
X791051400Y29293600D03*
X792321400Y29293600D03*
X793591400Y29293600D03*
X794861400Y29293600D03*
X796131400Y29293600D03*
X797401400Y29293600D03*
X798671400Y29293600D03*
X799941400Y29293600D03*
X801211400Y29293600D03*
D14*
X803241400Y31343600D03*
X803241400Y32613600D03*
X803241400Y33883600D03*
X803241400Y35153600D03*
X803241400Y36423600D03*
X803241400Y37693600D03*
X803241400Y38963600D03*
X803241400Y40233600D03*
X803241400Y41503600D03*
X803241400Y42773600D03*
X803241400Y44043600D03*
D15*
X801241400Y45993600D03*
X799971400Y45993600D03*
X798701400Y45993600D03*
X797431400Y45993600D03*
X796161400Y45993600D03*
X794891400Y45993600D03*
X793621400Y45993600D03*
X792351400Y45993600D03*
X791081400Y45993600D03*
X789811400Y45993600D03*
X788541400Y45993600D03*
D14*
X786541400Y44043600D03*
X786541400Y42773600D03*
X786541400Y41503600D03*
X786541400Y40233600D03*
X786541400Y38963600D03*
%TD*%
D17*
%TO.C,UC5*%
X707527800Y14768900D03*
X707527800Y16038900D03*
X707527800Y17308900D03*
D16*
X706015300Y18821400D03*
X704745300Y18821400D03*
X703475300Y18821400D03*
X702205300Y18821400D03*
X700935300Y18821400D03*
D17*
X699422800Y17308900D03*
X699422800Y16038900D03*
X699422800Y14768900D03*
X699422800Y13498900D03*
X699422800Y12228900D03*
D16*
X700935300Y10716400D03*
X702205300Y10716400D03*
X703475300Y10716400D03*
X704745300Y10716400D03*
X706015300Y10716400D03*
D17*
X707527800Y12228900D03*
X707527800Y13498900D03*
%TD*%
D35*
%TO.C,UA5*%
X699118000Y27663600D03*
X700388000Y27663600D03*
X701658000Y27663600D03*
X702928000Y27663600D03*
X704198000Y27663600D03*
X705468000Y27663600D03*
X706738000Y27663600D03*
X708008000Y27663600D03*
X708008000Y32613600D03*
X706738000Y32613600D03*
X705468000Y32613600D03*
X704198000Y32613600D03*
X702928000Y32613600D03*
X701658000Y32613600D03*
X700388000Y32613600D03*
X699118000Y32613600D03*
%TD*%
D15*
%TO.C,UA11*%
X820233800Y46043600D03*
X818963800Y46043600D03*
X817693800Y46043600D03*
X816423800Y46043600D03*
X815153800Y46043600D03*
X813883800Y46043600D03*
D14*
X811833800Y44073600D03*
X811833800Y42803600D03*
X811833800Y41533600D03*
X811833800Y40263600D03*
X811833800Y38993600D03*
X811833800Y37723600D03*
X811833800Y36453600D03*
X811833800Y35183600D03*
X811833800Y33913600D03*
X811833800Y32643600D03*
X811833800Y31373600D03*
D15*
X813883800Y29343600D03*
X815153800Y29343600D03*
X816423800Y29343600D03*
X817693800Y29343600D03*
X818963800Y29343600D03*
X820233800Y29343600D03*
X821503800Y29343600D03*
X822773800Y29343600D03*
X824043800Y29343600D03*
X825313800Y29343600D03*
X826583800Y29343600D03*
D14*
X828533800Y31343600D03*
X828533800Y32613600D03*
X828533800Y33883600D03*
X828533800Y35153600D03*
X828533800Y36423600D03*
X828533800Y37693600D03*
X828533800Y38963600D03*
X828533800Y40233600D03*
X828533800Y41503600D03*
X828533800Y42773600D03*
X828533800Y44043600D03*
D15*
X826583800Y46043600D03*
X825313800Y46043600D03*
X824043800Y46043600D03*
X822773800Y46043600D03*
X821503800Y46043600D03*
%TD*%
D26*
%TO.C,UJ6*%
X721927200Y-134672600D03*
X723197200Y-134672600D03*
X724467200Y-134672600D03*
X725737200Y-134672600D03*
X727007200Y-134672600D03*
X728277200Y-134672600D03*
X729547200Y-134672600D03*
X730817200Y-134672600D03*
X732087200Y-134672600D03*
X733357200Y-134672600D03*
X733357200Y-125372600D03*
X732087200Y-125372600D03*
X730817200Y-125372600D03*
X729547200Y-125372600D03*
X728277200Y-125372600D03*
X727007200Y-125372600D03*
X725737200Y-125372600D03*
X724467200Y-125372600D03*
X723197200Y-125372600D03*
X721927200Y-125372600D03*
%TD*%
D28*
%TO.C,UB13*%
X848241400Y26162000D03*
X848241400Y24892000D03*
X848241400Y23622000D03*
X848241400Y22352000D03*
X848241400Y21082000D03*
X848241400Y19812000D03*
X848241400Y18542000D03*
X853191400Y18542000D03*
X853191400Y19812000D03*
X853191400Y21082000D03*
X853191400Y22352000D03*
X853191400Y23622000D03*
X853191400Y24892000D03*
X853191400Y26162000D03*
%TD*%
D20*
%TO.C,RP7*%
X630004600Y-61204800D03*
X631274600Y-61204800D03*
X632544600Y-61204800D03*
X633814600Y-61204800D03*
X635084600Y-61204800D03*
X636354600Y-61204800D03*
X637624600Y-61204800D03*
X638894600Y-61204800D03*
X638894600Y-54279800D03*
X637624600Y-54279800D03*
X636354600Y-54279800D03*
X635084600Y-54279800D03*
X633814600Y-54279800D03*
X632544600Y-54279800D03*
X631274600Y-54279800D03*
X630004600Y-54279800D03*
%TD*%
D27*
%TO.C,C13*%
X836149000Y-6299200D03*
X842374000Y-6299200D03*
%TD*%
D37*
%TO.C,C20*%
X866504000Y-217957400D03*
X860279000Y-217957400D03*
%TD*%
D14*
%TO.C,UG4*%
X681139400Y-79349600D03*
X681139400Y-80619600D03*
X681139400Y-81889600D03*
X681139400Y-83159600D03*
X681139400Y-84429600D03*
X681139400Y-85699600D03*
X681139400Y-86969600D03*
X681139400Y-88239600D03*
X681139400Y-89509600D03*
D15*
X683129400Y-91499600D03*
X684399400Y-91499600D03*
X685669400Y-91499600D03*
X686939400Y-91499600D03*
X688209400Y-91499600D03*
X689479400Y-91499600D03*
X690749400Y-91499600D03*
X692019400Y-91499600D03*
X693289400Y-91499600D03*
X694559400Y-91499600D03*
X695829400Y-91499600D03*
X697099400Y-91499600D03*
X698369400Y-91499600D03*
X699639400Y-91499600D03*
X700909400Y-91499600D03*
X702179400Y-91499600D03*
X703449400Y-91499600D03*
D14*
X705439400Y-89509600D03*
X705439400Y-88239600D03*
X705439400Y-86969600D03*
X705439400Y-85699600D03*
X705439400Y-84429600D03*
X705439400Y-83159600D03*
X705439400Y-81889600D03*
X705439400Y-80619600D03*
X705439400Y-79349600D03*
X705439400Y-78079600D03*
X705439400Y-76809600D03*
X705439400Y-75539600D03*
X705439400Y-74269600D03*
X705439400Y-72999600D03*
X705439400Y-71729600D03*
X705439400Y-70459600D03*
X705439400Y-69189600D03*
D15*
X703439400Y-67199600D03*
X702169400Y-67199600D03*
X700899400Y-67199600D03*
X699629400Y-67199600D03*
X698359400Y-67199600D03*
X697089400Y-67199600D03*
X695819400Y-67199600D03*
X694549400Y-67199600D03*
X693279400Y-67199600D03*
X692009400Y-67199600D03*
X690739400Y-67199600D03*
X689469400Y-67199600D03*
X688199400Y-67199600D03*
X686929400Y-67199600D03*
X685659400Y-67199600D03*
X684389400Y-67199600D03*
X683119400Y-67199600D03*
D14*
X681139400Y-69189600D03*
X681139400Y-70459600D03*
X681139400Y-71729600D03*
X681139400Y-72999600D03*
X681139400Y-74269600D03*
X681139400Y-75539600D03*
X681139400Y-76809600D03*
X681139400Y-78079600D03*
%TD*%
D42*
%TO.C,F3*%
X851391000Y52806600D03*
X857741000Y52806600D03*
%TD*%
D13*
%TO.C,Q4*%
X857400600Y-5329400D03*
X859300600Y-5329400D03*
X858350600Y-3454400D03*
%TD*%
D37*
%TO.C,C19*%
X643163800Y-216712800D03*
X636938800Y-216712800D03*
%TD*%
M02*
