M48
INCH
T1C0.0157
T2C0.0197
T3C0.0295
T4C0.0300
T5C0.0315
T6C0.0354
T7C0.0394
T8C0.0433
T9C0.0472
T10C0.0551
T11C0.0630
T12C0.0669
T13C0.0709
T14C0.0945
T15C0.0984
T16C0.1260
%
G90
G05
T1
X24.246Y-3.442
X24.316Y-7.224
X24.316Y-7.286
X24.316Y-7.345
X24.3963Y-4.511
X24.4103Y-4.224
X24.4133Y-6.935
X24.4143Y-6.734
X24.4153Y-5.292
X24.4153Y-6.834
X24.4393Y0.742
X24.4753Y-5.373
X24.4863Y0.071
X24.5133Y-6.834
X24.5233Y2.205
X24.5483Y-4.313
X24.5573Y-5.432
X24.5753Y-5.271
X24.5753Y-6.535
X24.612Y-8.817
X24.6603Y-3.582
X24.6773Y-5.393
X24.6793Y-4.736
X24.6973Y-5.314
X24.7163Y-5.234
X24.7193Y-0.001
X24.7353Y-3.833
X24.7353Y-3.985
X24.7363Y-5.152
X24.7563Y-4.211
X24.7583Y-2.627
X24.7593Y-2.929
X24.7883Y1.827
X24.7893Y-2.53
X24.7963Y-5.233
X24.8023Y-1.445
X24.8033Y-1.027
X24.8033Y-1.976
X24.8153Y-5.131
X24.8193Y-6.434
X24.8273Y-4.509
X24.8273Y-4.743
X24.8973Y-5.173
X24.8983Y-5.093
X24.91Y-6.903
X24.9343Y-6.434
X24.9353Y-6.134
X24.9402Y-6.931
X24.9593Y-2.93
X24.9763Y-4.609
X24.9773Y-4.689
X24.9783Y-4.45
X24.9783Y-4.53
X24.9943Y-5.534
X24.9953Y-5.434
X24.9953Y-6.734
X24.9963Y-6.956
X25.0243Y-2.721
X25.0523Y-8.693
X25.0913Y-1.432
X25.0953Y-6.834
X25.0963Y-2.627
X25.0973Y-1.023
X25.0983Y1.381
X25.1333Y-6.034
X25.1343Y-5.971
X25.1363Y-5.653
X25.1363Y-5.812
X25.1443Y-2.527
X25.1473Y-3.126
X25.1533Y-1.976
X25.1563Y-2.928
X25.1573Y-3.21
X25.1583Y-2.787
X25.1813Y-0.578
X25.1853Y-2.621
X25.1933Y-6.535
X25.1943Y-5.732
X25.1943Y-5.934
X25.1953Y-6.836
X25.1993Y1.381
X25.2163Y-4.568
X25.2173Y-4.49
X25.2353Y-6.134
X25.2363Y-5.851
X25.2943Y-6.535
X25.2953Y-5.731
X25.2953Y-6.834
X25.3343Y-8.695
X25.3383Y1.339
X25.3383Y0.98
X25.3403Y1.125
X25.3513Y-3.831
X25.3883Y2.145
X25.3883Y2.06
X25.3883Y1.983
X25.3933Y-7.436
X25.3953Y-5.392
X25.3953Y-5.732
X25.3953Y-6.536
X25.3953Y-6.833
X25.397Y-8.129
X25.4393Y0.739
X25.4393Y0.558
X25.4453Y-5.452
X25.4493Y-3.54
X25.4773Y-4.53
X25.4773Y-4.729
X25.4793Y-0.021
X25.4943Y-6.234
X25.4943Y-6.537
X25.4943Y-8.037
X25.4953Y-5.392
X25.4953Y-6.134
X25.4953Y-6.832
X25.4953Y-7.033
X25.4993Y0.68
X25.5003Y-7.133
X25.5273Y-4.328
X25.5273Y-4.668
X25.5363Y-5.189
X25.5373Y0.521
X25.5453Y-5.454
X25.5543Y-6.874
X25.5773Y-5.653
X25.5973Y-4.129
X25.5973Y-4.33
X25.5973Y-4.627
X25.6133Y-8.507
X25.6143Y-6.834
X25.6193Y0.56
X25.6223Y-7.567
X25.6263Y-3.831
X25.6383Y1.661
X25.6453Y-5.654
X25.6493Y0.93
X25.6543Y-0.621
X25.6543Y-0.78
X25.6543Y-2.527
X25.6563Y-5.135
X25.6573Y-2.829
X25.6583Y-2.927
X25.6583Y-3.127
X25.6953Y-5.392
X25.6993Y1.583
X25.6993Y0.78
X25.7003Y0.881
X25.7013Y0.98
X25.7123Y-7.937
X25.7143Y-7.687
X25.7153Y0.581
X25.7243Y1.184
X25.7273Y-4.529
X25.7273Y-4.73
X25.7433Y-7.453
X25.7453Y-5.452
X25.7473Y-1.627
X25.7483Y-8.078
X25.7493Y-0.926
X25.7493Y-1.429
X25.7503Y-2.427
X25.7503Y-2.627
X25.7503Y-3.227
X25.7753Y-5.071
X25.7763Y-4.589
X25.7913Y-7.9
X25.7923Y-8.418
X25.7953Y-5.832
X25.8273Y-4.529
X25.8273Y-4.73
X25.8333Y-7.841
X25.8433Y-7.656
X25.8433Y-8.657
X25.8713Y-8.417
X25.8733Y-7.9
X25.8933Y-6.233
X25.8933Y-8.596
X25.8943Y-6.033
X25.8943Y-6.134
X25.8953Y-6.334
X25.8953Y-6.433
X25.8953Y-6.535
X25.8953Y-6.835
X25.8963Y-5.731
X25.8983Y1.377
X25.8983Y0.68
X25.8983Y0.581
X25.8983Y0.481
X25.9133Y-7.838
X25.9273Y-4.529
X25.9273Y-4.73
X25.9423Y-8.676
X25.9433Y-7.454
X25.9523Y-7.897
X25.9563Y-3.108
X25.9583Y0.982
X25.9583Y-2.926
X25.9583Y-3.027
X25.9723Y-4.913
X25.9743Y-4.99
X25.9783Y-1.967
X25.9933Y-6.034
X25.9933Y-6.333
X25.9933Y-6.535
X25.9933Y-7.394
X25.9933Y-8.714
X25.9943Y-6.134
X25.9953Y-5.231
X25.9953Y-5.732
X25.9953Y-5.927
X25.9953Y-6.234
X25.9953Y-6.435
X25.9953Y-6.834
X25.9963Y-2.726
X25.9963Y-7.836
X25.9973Y-5.432
X25.9973Y-5.834
X26.0303Y-0.926
X26.0313Y-1.429
X26.0313Y-1.627
X26.0313Y-3.227
X26.0323Y-7.896
X26.0333Y-2.427
X26.0333Y-2.628
X26.0353Y-2.525
X26.0363Y-3.026
X26.0393Y-2.828
X26.0433Y-7.315
X26.0433Y-8.757
X26.0443Y-6.613
X26.0723Y-7.656
X26.0753Y-5.934
X26.0893Y-8.035
X26.0933Y-7.392
X26.0933Y-8.796
X26.0943Y-6.897
X26.0953Y-5.431
X26.0953Y-6.837
X26.0973Y-5.312
X26.1003Y0.68
X26.1003Y0.48
X26.1143Y-5.172
X26.1183Y-2.826
X26.1363Y-3.908
X26.1433Y-7.316
X26.1433Y-8.835
X26.1703Y-5.261
X26.1743Y-3.725
X26.1763Y-4.351
X26.1763Y-4.911
X26.1773Y-4.266
X26.1933Y-7.396
X26.1933Y-8.876
X26.1943Y-6.734
X26.1953Y-5.351
X26.1963Y-5.532
X26.1973Y-5.43
X26.1993Y0.075
X26.2013Y1.682
X26.2183Y-3.905
X26.2243Y1.431
X26.2333Y-3.766
X26.2353Y-3.684
X26.2393Y-3.565
X26.2433Y-7.316
X26.2433Y-8.415
X26.2543Y-6.434
X26.2593Y0.98
X26.2723Y-4.527
X26.2753Y-6.134
X26.2933Y-7.375
X26.2933Y-8.635
X26.2953Y-3.647
X26.2953Y-6.634
X26.2973Y-3.505
X26.2983Y0.881
X26.2983Y0.78
X26.2993Y-3.821
X26.3003Y1.582
X26.3093Y1.743
X26.3103Y-7.655
X26.3163Y-3.565
X26.3243Y1.183
X26.3243Y0.583
X26.3263Y-4.706
X26.3433Y-8.876
X26.3503Y0.98
X26.3753Y-7.654
X26.3763Y-7.133
X26.3933Y-8.919
X26.3973Y-4.653
X26.3983Y-6.583
X26.3993Y1.183
X26.4263Y-4.35
X26.4313Y-8.337
X26.4323Y-7.937
X26.4323Y-8.037
X26.4323Y-8.137
X26.4333Y-7.856
X26.4333Y-8.237
X26.4353Y-5.351
X26.4393Y0.682
X26.4433Y-8.955
X26.4593Y-4.927
X26.4723Y-8.087
X26.4723Y-8.387
X26.4733Y-7.987
X26.4733Y-8.187
X26.4733Y-8.287
X26.4933Y0.075
X26.4933Y-6.837
X26.4933Y-6.895
X26.4963Y-3.907
X26.4973Y1.182
X26.4983Y1.582
X26.5133Y-5.491
X26.5183Y0.48
X26.5383Y0.841
X26.5523Y-6.734
X26.5633Y-8.514
X26.5643Y-7.566
X26.5733Y-4.95
X26.5943Y-6.051
X26.5983Y-2.624
X26.6003Y-4.582
X26.6183Y0.682
X26.6193Y0.842
X26.6263Y-4.743
X26.6353Y1.077
X26.6363Y-1.982
X26.6503Y2.535
X26.6503Y2.483
X26.6713Y-7.796
X26.6723Y-7.937
X26.6753Y-6.051
X26.6783Y0.92
X26.6783Y0.48
X26.6793Y1.603
X26.6793Y0.559
X26.6943Y-5.829
X26.6953Y-6.132
X26.6963Y-0.722
X26.6973Y-0.421
X26.6973Y-0.52
X26.6973Y-0.622
X26.6973Y-0.823
X26.6973Y-0.92
X26.7113Y-7.987
X26.7143Y-6.432
X26.7153Y-2.081
X26.7153Y-2.325
X26.7163Y-2.161
X26.7163Y-2.243
X26.7363Y-1.771
X26.7513Y-8.037
X26.7523Y-8.595
X26.7533Y-8.138
X26.7563Y-5.888
X26.7573Y1.283
X26.7583Y0.76
X26.7723Y-8.237
X26.7733Y1.664
X26.7763Y-0.341
X26.7763Y-0.423
X26.7763Y-0.622
X26.7773Y-0.523
X26.7783Y-0.723
X26.7923Y-8.087
X26.7933Y-7.293
X26.7953Y-6.232
X26.7953Y-6.432
X26.7993Y1.483
X26.7993Y0.881
X26.8133Y-8.287
X26.8143Y-2.663
X26.8163Y-1.982
X26.8183Y0.401
X26.8273Y0.981
X26.8303Y-8.387
X26.8343Y-6.734
X26.8453Y-6.132
X26.8563Y-6.031
X26.8723Y-8.155
X26.8733Y-8.336
X26.8883Y-8.918
X26.8913Y-8.716
X26.8923Y-6.936
X26.8943Y-2.564
X26.8943Y-6.232
X26.8943Y-6.332
X26.8963Y-6.834
X26.8983Y-0.963
X26.8993Y1.463
X26.9113Y-8.535
X26.9153Y-2.874
X26.9153Y-3.827
X26.9163Y-2.147
X26.9163Y-2.774
X26.9163Y-2.975
X26.9173Y-1.422
X26.9173Y-1.621
X26.9183Y-1.322
X26.9183Y-1.522
X26.9183Y-1.871
X26.9183Y-3.074
X26.9193Y1.203
X26.9253Y1.382
X26.9403Y0.644
X26.9483Y-0.92
X26.9553Y-3.124
X26.9553Y-5.47
X26.9563Y-1.472
X26.9563Y-3.023
X26.9573Y-0.482
X26.9573Y-1.371
X26.9573Y-1.672
X26.9583Y-1.572
X26.9583Y-2.924
X26.9713Y-8.736
X26.9713Y-8.897
X26.9753Y-3.828
X26.9763Y-5.57
X26.9913Y-6.834
X26.9923Y-6.734
X26.9943Y-6.933
X26.9953Y-2.565
X26.9983Y0.582
X26.9983Y-0.962
X26.9993Y1.683
X26.9993Y1.38
X27.0003Y0.882
X27.0003Y-2.768
X27.0123Y-5.21
X27.0143Y-2.122
X27.0143Y-6.09
X27.0173Y-2.185
X27.0173Y-6.012
X27.0273Y0.981
X27.0283Y-1.776
X27.0363Y-1.673
X27.0363Y-4.269
X27.0453Y-3.506
X27.0483Y0.006
X27.0483Y-0.919
X27.0503Y-8.877
X27.0523Y-8.756
X27.0543Y-5.652
X27.0543Y-5.73
X27.0553Y-3.828
X27.0553Y-5.572
X27.0563Y-5.491
X27.0563Y-5.81
X27.0723Y-7.613
X27.0733Y-7.694
X27.0743Y1.501
X27.0753Y-5.971
X27.0773Y-2.768
X27.0783Y-1.525
X27.0943Y-2.564
X27.0953Y-2.104
X27.0953Y-2.185
X27.0953Y-3.304
X27.0983Y-0.962
X27.0993Y1.381
X27.0993Y1.183
X27.1163Y-4.778
X27.1173Y-1.465
X27.1173Y-4.428
X27.1173Y-4.628
X27.1183Y-2.99
X27.1183Y-4.527
X27.1323Y-8.657
X27.1323Y-8.857
X27.1333Y-8.775
X27.1353Y-5.769
X27.1363Y-3.825
X27.1363Y-4.929
X27.1373Y-5.57
X27.1443Y-2.524
X27.1453Y-3.344
X27.1483Y-0.92
X27.1503Y-2.181
X27.1513Y-7.696
X27.1523Y-7.336
X27.1523Y-7.614
X27.1543Y-4.849
X27.1543Y-7.436
X27.1553Y-1.524
X27.1553Y-2.102
X27.1573Y1.442
X27.1763Y-0.368
X27.1763Y-0.519
X27.1763Y-4.527
X27.1933Y-2.989
X27.1943Y-1.466
X27.1943Y-2.565
X27.1943Y-3.305
X27.1953Y0.881
X27.1953Y0.363
X27.1973Y1.683
X27.1973Y1.183
X27.1983Y-0.962
X27.2093Y-8.838
X27.2123Y-4.428
X27.2133Y-2.768
X27.2223Y1.883
X27.2333Y-3.124
X27.2343Y-2.223
X27.2353Y-1.906
X27.2363Y1.063
X27.2443Y-2.525
X27.2453Y-3.344
X27.2463Y-5.109
X27.2483Y-0.099
X27.2483Y-0.92
X27.2513Y0.631
X27.2533Y-1.764
X27.2723Y-5.991
X27.2733Y-2.159
X27.2773Y1.585
X27.2893Y-5.006
X27.2913Y-1.523
X27.2913Y-6.175
X27.2943Y-1.272
X27.2943Y-3.705
X27.2983Y-1.141
X27.3133Y-1.766
X27.3133Y-4.728
X27.3133Y-4.928
X27.3153Y0.927
X27.3153Y-1.905
X27.3363Y1.421
X27.3443Y-2.504
X27.3443Y-3.384
X27.3473Y-4.349
X27.3483Y-0.961
X27.3493Y-2.125
X27.3533Y-4.668
X27.3553Y-2.988
X27.3563Y0.422
X27.3573Y0.501
X27.3913Y-4.93
X27.3933Y-1.863
X27.3943Y-2.445
X27.3943Y-3.342
X27.3943Y-4.728
X27.3943Y-5.008
X27.3953Y-1.784
X27.3973Y-0.118
X27.3973Y-5.108
X27.3983Y-0.921
X27.3983Y-2.162
X27.4313Y0.927
X27.4313Y-4.668
X27.4353Y0.782
X27.4353Y-4.447
X27.4373Y1.442
X27.4383Y-2.766
X27.4443Y-3.382
X27.4453Y-2.504
X27.4473Y-5.07
X27.4483Y-0.96
X27.4493Y-2.122
X27.4523Y-9.036
X27.4543Y-0.319
X27.4543Y-4.347
X27.4563Y1.283
X27.4733Y-1.825
X27.4743Y-4.729
X27.4943Y-2.446
X27.4943Y-3.485
X27.4963Y0.882
X27.4983Y-0.921
X27.4983Y-2.161
X27.5083Y-8.673
X27.5113Y0.404
X27.5123Y-4.448
X27.5123Y-4.669
X27.5143Y-2.767
X27.5153Y-3.347
X27.5353Y-0.2
X27.5353Y-0.322
X27.5453Y-2.505
X27.5453Y-3.705
X27.5473Y-0.961
X27.5493Y-2.123
X27.5533Y-4.549
X27.5533Y-4.73
X27.5893Y-8.674
X27.5943Y0.351
X27.5943Y-4.668
X27.5953Y-2.447
X27.5963Y1.183
X27.5963Y0.883
X27.5963Y-0.542
X27.5973Y1.782
X27.5973Y1.683
X27.5973Y-2.765
X27.5973Y-2.865
X27.5983Y-0.922
X27.5983Y-2.162
X27.6123Y-6.031
X27.6123Y-6.132
X27.6143Y-0.201
X27.6153Y-0.318
X27.6243Y1.362
X27.6333Y-3.124
X27.6333Y-3.324
X27.6343Y-1.523
X27.6343Y-3.224
X27.6343Y-3.424
X27.6343Y-4.73
X27.6353Y-1.322
X27.6353Y-1.422
X27.6353Y-2.924
X27.6353Y-3.024
X27.6353Y-4.548
X27.6443Y-2.504
X27.6473Y-4.347
X27.6483Y-0.963
X27.6733Y-1.772
X27.6733Y-3.374
X27.6733Y-3.474
X27.6733Y-4.668
X27.6743Y-2.874
X27.6743Y-3.074
X27.6743Y-7.072
X27.6753Y-1.272
X27.6753Y-1.371
X27.6753Y-1.472
X27.6753Y-2.974
X27.6763Y0.134
X27.6763Y-2.774
X27.6763Y-3.274
X27.6773Y-3.174
X27.6783Y0.881
X27.6953Y-2.447
X27.6963Y1.382
X27.6963Y1.182
X27.6973Y1.683
X27.6973Y-4.406
X27.6983Y1.782
X27.7143Y-4.728
X27.7263Y-9.036
X27.7363Y-0.639
X27.7373Y1.442
X27.7473Y-4.348
X27.7573Y-1.04
X27.7683Y-3.779
X27.7753Y-4.526
X27.7763Y0.632
X27.7773Y-3.587
X27.7923Y-4.727
X27.7963Y0.882
X27.7973Y1.782
X27.7973Y1.682
X27.7973Y1.183
X27.7973Y-5.308
X27.8133Y-4.15
X27.8333Y0.4219
X27.8333Y-4.578
X27.8363Y-4.478
X27.8553Y-2.518
X27.8723Y-4.778
X27.8733Y-4.347
X27.8743Y-2.724
X27.8743Y-4.428
X27.8763Y-4.528
X27.8953Y0.881
X27.8963Y1.681
X27.9153Y1.442
X27.9193Y1.183
X27.9268Y0.4815
X27.9323Y-2.523
X27.9353Y-2.607
X27.9363Y1.284
X27.9373Y1.06
X27.9683Y-4.266
X27.9743Y-0.7
X27.9743Y-5.228
X27.9753Y1.584
X27.9753Y-4.189
X27.9893Y-8.138
X27.9943Y1.441
X28.0143Y-2.603
X28.0313Y-2.245
X28.0323Y-2.325
X28.0353Y1.342
X28.0483Y-6.831
X28.0513Y-6.032
X28.0523Y-3.666
X28.0553Y-0.679
X28.0563Y1.202
X28.0563Y-5.931
X28.0583Y-2.142
X28.0753Y0.782
X28.0763Y0.921
X28.0763Y0.531
X28.0773Y0.431
X28.0933Y-2.203
X28.0933Y-2.283
X28.0953Y-2.603
X28.0953Y-2.673
X28.0973Y-2.081
X28.1133Y1.342
X28.1133Y-4.577
X28.1143Y-0.839
X28.1143Y-3.023
X28.1173Y-4.479
X28.1343Y-3.105
X28.1353Y-0.604
X28.1523Y-4.43
X28.1533Y-4.528
X28.1553Y-3.183
X28.1563Y-0.68
X28.1573Y-2.042
X28.1733Y-0.759
X28.1743Y-4.107
X28.1743Y-4.346
X28.1763Y1.002
X28.1763Y0.36
X28.1773Y-3.266
X28.1943Y-3.406
X28.1943Y-3.466
X28.1943Y-4.248
X28.1953Y-0.839
X28.1953Y-3.345
X28.1963Y-4.167
X28.2313Y-4.429
X28.2323Y-4.309
X28.2373Y-2.041
X28.2503Y-9.036
X28.2763Y0.781
X28.2763Y0.581
X28.2963Y1.262
X28.2963Y1.162
X28.2963Y0.44
X28.3463Y0.923
X28.3463Y0.481
X28.3763Y1.121
X28.3963Y0.439
X28.4103Y-4.849
X28.4123Y-6.033
X28.4133Y-4.769
X28.4133Y-6.133
X28.4313Y-8.735
X28.4323Y-6.274
X28.4323Y-6.633
X28.4463Y0.48
X28.4763Y-5.567
X28.4953Y-4.37
X28.4963Y0.441
X28.4963Y-4.268
X28.5223Y-4.83
X28.5223Y-9.036
X28.5463Y0.481
X28.5503Y-4.409
X28.5533Y-4.226
X28.5553Y-4.147
X28.5553Y-4.308
X28.5563Y-4.068
X28.5633Y-5.006
X28.5723Y-4.789
X28.5963Y0.441
X28.6173Y0.843
X28.6223Y-4.85
X28.6463Y0.482
X28.6723Y-4.81
X28.6963Y0.923
X28.6963Y0.843
X28.6963Y0.22
X28.7153Y0.66
X28.7153Y0.481
X28.7163Y0.58
X28.7223Y-4.85
X28.7283Y-7.972
X28.7313Y-6.331
X28.7323Y-6.83
X28.7483Y-7.433
X28.7513Y-7.133
X28.7723Y-4.808
X28.7733Y-6.133
X28.7753Y1.104
X28.8223Y-4.852
X28.8343Y0.12
X28.8373Y0.001
X28.8723Y-4.806
X28.8953Y1.044
X28.9163Y-5.248
X28.9173Y1.707
X28.9563Y1.084
X28.9743Y1.242
X29.0113Y1.942
X29.0283Y0.544
X29.0353Y0.64
X29.0483Y-9.036
X29.0763Y0.863
X29.0913Y-4.588
X29.0963Y0.483
X29.1093Y-4.828
X29.1163Y0.562
X29.1303Y-8.174
X29.1333Y-4.686
X29.1333Y-5.405
X29.1343Y-2.559
X29.1363Y1.565
X29.1463Y-8.391
X29.1463Y-8.691
X29.1473Y1.735
X29.1473Y1.635
X29.1513Y-7.936
X29.1523Y-2.222
X29.1523Y-3.82
X29.1533Y-6.932
X29.1543Y-2.281
X29.1573Y-2.16
X29.1703Y-7.333
X29.1723Y-7.633
X29.1733Y-4.584
X29.1743Y-6.631
X29.1923Y-2.441
X29.1973Y-5.669
X29.2113Y-4.685
X29.2123Y-8.174
X29.2133Y-2.321
X29.2133Y-2.58
X29.2143Y-7.071
X29.2473Y1.83
X29.2563Y-4.828
X29.2653Y-3.478
X29.2733Y-2.924
X29.2733Y-3.145
X29.2743Y-2.161
X29.2743Y-2.26
X29.2743Y-2.845
X29.2743Y-3.544
X29.2933Y-0.059
X29.2933Y-1.821
X29.2933Y-4.685
X29.2943Y-2.402
X29.2943Y-3.363
X29.2953Y-0.4
X29.2963Y-3.244
X29.2973Y1.085
X29.2983Y-3.303
X29.3273Y-2.721
X29.3293Y-9.036
X29.3323Y-2.342
X29.3333Y-4.586
X29.3363Y0.864
X29.3503Y-2.521
X29.3683Y-3.624
X29.3693Y-3.505
X29.3693Y-3.564
X29.3693Y-3.685
X29.3703Y-2.403
X29.3703Y-3.402
X29.3703Y-3.747
X29.3713Y-3.344
X29.3723Y-4.686
X29.3743Y-2.262
X29.3753Y1.904
X29.3943Y0.283
X29.3943Y-3.286
X29.4113Y-4.584
X29.4123Y-1.68
X29.4133Y-2.764
X29.4303Y-2.702
X29.4333Y-1.766
X29.4443Y0.867
X29.4503Y-2.522
X29.4513Y-3.087
X29.4523Y-3.005
X29.4533Y-0.056
X29.4553Y1.903
X29.4573Y-2.261
X29.4693Y-2.383
X29.4713Y-3.146
X29.4733Y-1.679
X29.4743Y0.282
X29.4913Y-1.763
X29.4913Y-3.286
X29.4913Y-3.345
X29.4923Y-4.585
X29.4963Y1.246
X29.5113Y-2.521
X29.5143Y1.983
X29.5153Y2.085
X29.5163Y1.904
X29.5293Y-0.059
X29.5323Y-4.525
X29.5333Y-2.666
X29.5343Y-1.217
X29.5503Y-2.726
X29.5663Y-8.675
X29.5683Y-7.934
X29.5683Y-8.116
X29.5683Y-8.373
X29.5693Y-7.632
X29.5763Y2.205
X29.5873Y-7.431
X29.5903Y-6.27
X29.5923Y-2.923
X29.5923Y-2.984
X29.5923Y-4.486
X29.5923Y-5.408
X29.5963Y1.983
X29.6013Y0.731
X29.6113Y-3.606
X29.6113Y-6.653
X29.6123Y-1.86
X29.6123Y-6.429
X29.6123Y-6.511
X29.6143Y-1.682
X29.6173Y2.105
X29.6323Y-0.019
X29.6323Y-4.308
X29.6333Y-2.137
X29.6343Y1.307
X29.6343Y-4.183
X29.6353Y1.506
X29.6353Y0.203
X29.6493Y-0.401
X29.6513Y-3.187
X29.6533Y-2.984
X29.6733Y-3.38
X29.6773Y-1.3
X29.6903Y-3.725
X29.6903Y-3.826
X29.6913Y-3.626
X29.6963Y0.733
X29.7123Y-2.162
X29.7333Y-3.38
X29.7533Y0.204
X29.7713Y-3.563
X29.7723Y-3.646
X29.7723Y-3.745
X29.7733Y1.685
X29.7883Y-8.933
X29.7933Y-3.382
X29.7943Y1.285
X29.7963Y0.732
X29.8173Y-4.849
X29.8353Y-5.408
X29.8483Y-9.024
X29.8533Y-3.382
X29.8543Y-2.784
X29.8543Y-4.604
X29.8673Y-4.808
X29.8693Y-3.925
X29.8703Y-8.935
X29.8713Y-3.644
X29.8713Y-3.865
X29.8713Y-4.047
X29.8713Y-4.105
X29.8723Y-3.985
X29.8723Y-4.166
X29.8723Y-4.226
X29.8723Y-4.287
X29.8733Y-2.484
X29.8873Y-0.32
X29.8913Y-8.291
X29.8933Y-6.593
X29.8943Y-0.019
X29.8943Y-0.915
X29.8943Y-6.39
X29.8953Y0.733
X29.8963Y-4.546
X29.9003Y-3.043
X29.9083Y-8.591
X29.9103Y-7.991
X29.9113Y-3.382
X29.9163Y0.944
X29.9263Y2.032
X29.9283Y2.132
X29.9303Y-8.734
X29.9323Y-7.69
X29.9333Y-2.143
X29.9373Y1.934
X29.9493Y-8.934
X29.9513Y-4.85
X29.9523Y-7.475
X29.9713Y-1.3
X29.9713Y-3.383
X29.9713Y-6.829
X29.9723Y-3.646
X29.9903Y-8.633
X29.9923Y-3.024
X29.9943Y0.083
X29.9943Y-8.333
X29.9953Y-0.016
X29.9963Y1.186
X29.9963Y0.732
X30.0143Y-0.118
X30.0273Y-8.936
X30.0323Y-3.645
X30.0343Y-7.933
X30.0693Y-7.292
X30.0693Y-7.594
X30.0713Y-0.427
X30.0713Y-0.639
X30.0713Y-6.59
X30.0723Y-0.718
X30.0853Y-6.475
X30.0893Y-6.369
X30.0903Y-3.686
X30.0923Y0.084
X30.0923Y-0.118
X30.0953Y0.732
X30.1113Y-3.424
X30.1153Y1.745
X30.1273Y-9.038
X30.1513Y-2.694
X30.1523Y-3.685
X30.1523Y-3.745
X30.1693Y-3.966
X30.1713Y-3.424
X30.1723Y-1.659
X30.1723Y-4.047
X30.1913Y-0.077
X30.1923Y0.732
X30.1923Y0.023
X30.1923Y-2.844
X30.1943Y-1.278
X30.2103Y-3.166
X30.2113Y-2.965
X30.2283Y2.129
X30.2283Y2.007
X30.2283Y1.878
X30.2293Y-4.167
X30.2303Y-4.048
X30.2303Y-4.107
X30.2313Y-1.441
X30.2313Y-3.746
X30.2313Y-4.708
X30.2323Y-3.423
X30.2323Y-3.686
X30.2323Y-3.965
X30.2333Y-4.769
X30.2343Y-3.364
X30.2483Y-2.381
X30.2523Y-1.298
X30.2673Y-5.408
X30.2723Y-0.635
X30.2733Y-2.863
X30.2923Y-3.165
X30.2933Y-0.218
X30.2933Y-0.288
X30.2933Y-0.719
X30.2933Y-1.016
X30.2933Y-3.086
X30.2943Y0.731
X30.3123Y-3.424
X30.3133Y-3.365
X30.3283Y-1.445
X30.3283Y-7.391
X30.3293Y-2.092
X30.3323Y-1.357
X30.3333Y-7.273
X30.3493Y-7.575
X30.3513Y-7.709
X30.3523Y-1.141
X30.3533Y-6.591
X30.3703Y-3.146
X30.3713Y-2.945
X30.3713Y-7.791
X30.3723Y-1.018
X30.3723Y-2.883
X30.3843Y-6.433
X30.3893Y-8.134
X30.3903Y-7.894
X30.3913Y-0.578
X30.3913Y-2.743
X30.3913Y-7.513
X30.3923Y-1.66
X30.3933Y-0.302
X30.3933Y-0.643
X30.3943Y0.734
X30.3943Y-0.118
X30.3943Y-0.217
X30.3943Y-7.133
X30.3953Y-0.468
X30.4123Y0.142
X30.4133Y-3.046
X30.4153Y0.222
X30.4283Y-8.434
X30.4293Y-8.534
X30.4313Y-8.235
X30.4523Y-2.924
X30.4523Y-2.985
X30.4713Y-3.066
X30.4713Y-7.894
X30.4903Y-7.733
X30.4933Y-0.116
X30.4943Y-1.704
X30.4953Y0.221
X30.4963Y0.731
X30.5063Y-4.849
X30.5173Y-5.448
X30.5323Y-3.068
X30.5663Y-4.808
X30.5743Y-1.723
X30.5943Y-0.118
X30.5963Y1.983
X30.5963Y1.884
X30.5973Y2.084
X30.6123Y-2.662
X30.6333Y-2.263
X30.6333Y-3.025
X30.6343Y1.105
X30.6433Y-3.444
X30.6433Y-3.504
X30.6483Y-6.733
X30.6503Y-3.926
X30.6513Y-0.18
X30.6533Y-3.186
X30.6533Y-3.285
X30.6543Y-3.344
X30.6573Y-4.828
X30.6743Y-3.106
X30.6753Y-2.322
X30.6923Y-3.025
X30.6923Y-3.825
X30.6933Y-1.762
X30.6933Y-7.072
X30.6943Y-2.647
X30.6973Y2.145
X30.7033Y-3.506
X30.7143Y-0.117
X30.7143Y-3.926
X30.7153Y1.083
X30.7313Y-3.106
X30.7343Y-3.207
X30.7353Y0.964
X30.7353Y0.803
X30.7363Y0.884
X30.7513Y-3.742
X30.7513Y-3.823
X30.7523Y-3.686
X30.7533Y-3.306
X30.7543Y-3.366
X30.7553Y2.065
X30.7723Y-2.462
X30.7723Y-3.926
X30.7903Y-6.512
X30.7913Y-0.523
X30.7913Y-0.721
X30.7923Y-0.798
X30.7933Y0.743
X30.7933Y-0.918
X30.7943Y0.802
X30.7943Y-0.219
X30.7963Y-0.116
X30.8093Y-4.667
X30.8113Y-4.547
X30.8113Y-4.604
X30.8123Y-4.488
X30.8313Y-1.083
X30.8313Y-6.793
X30.8543Y0.683
X30.8553Y0.743
X30.8713Y-1.141
X30.8733Y-1.563
X30.8763Y0.562
X30.8943Y-1.021
X30.9123Y-0.098
X30.9313Y-7.191
X30.9333Y-0.159
X30.9513Y-1.082
X30.9513Y-7.05
X30.9533Y-1.643
X30.9543Y0.559
X30.9713Y-0.999
X30.9743Y2.144
X30.9743Y1.165
X30.9753Y2.064
X30.9753Y1.805
X31.0153Y1.921
X31.0153Y1.064
X31.0283Y-8.839
X31.0303Y-1.083
X31.0323Y-1.542
X31.0343Y-5.33
X31.0483Y-4.99
X31.0513Y-4.409
X31.0513Y-4.909
X31.0543Y1.384
X31.0543Y0.562
X31.0753Y2.042
X31.0883Y-8.536
X31.0893Y-1.122
X31.0903Y-7.835
X31.0903Y-8.234
X31.0913Y-0.619
X31.0913Y-1.021
X31.0913Y-7.331
X31.0933Y-0.32
X31.0953Y1.923
X31.0953Y0.985
X31.1123Y-1.522
X31.1163Y1.563
X31.1333Y-4.409
X31.1343Y1.284
X31.1353Y0.562
X31.1463Y1.685
X31.1543Y1.365
X31.1763Y1.505
X31.1893Y-7.131
X31.1923Y-1.503
X31.1923Y-7.052
X31.1933Y-0.42
X31.1933Y-0.618
X31.1943Y1.424
X31.1943Y0.884
X31.1943Y-0.319
X31.2113Y-1.14
X31.2123Y-0.981
X31.2133Y-0.897
X31.2133Y-1.06
X31.2153Y1.923
X31.2153Y0.562
X31.2343Y1.285
X31.2353Y0.985
X31.2353Y-0.239
X31.2493Y-4.788
X31.2553Y1.505
X31.2703Y-5.067
X31.2713Y-1.502
X31.2713Y-4.991
X31.2723Y-5.147
X31.2898Y-0.7195
X31.2923Y-1.925
X31.2933Y-0.938
X31.2933Y-1.02
X31.2933Y-1.121
X31.2943Y-0.118
X31.2953Y2.024
X31.2953Y1.923
X31.2953Y0.558
X31.2953Y-0.194
X31.2953Y-0.478
X31.2953Y-0.635
X31.2953Y-0.798
X31.2953Y-0.858
X31.3103Y-5.9
X31.3123Y-5.7
X31.3123Y-6.2
X31.3123Y-6.4
X31.3123Y-6.5
X31.3133Y0.14
X31.3133Y-2.303
X31.3133Y-5.8
X31.3133Y-5.999
X31.3133Y-6.3
X31.3143Y0.942
X31.3143Y-2.867
X31.3303Y-4.95
X31.3303Y-5.03
X31.3313Y0.061
X31.3323Y-4.792
X31.3333Y-5.107
X31.3363Y2.205
X31.3433Y1.611
X31.3513Y-5.85
X31.3513Y-5.95
X31.3523Y-2.103
X31.3523Y-6.151
X31.3523Y-6.25
X31.3523Y-6.45
X31.3533Y-5.75
X31.3543Y-1.903
X31.3543Y-6.35
X31.3553Y-1.301
X31.3553Y-5.65
X31.3743Y0.559
X31.3743Y0.18
X31.3743Y-2.182
X31.3743Y-2.928
X31.3913Y-7.192
X31.3933Y-2.865
X31.3943Y1.922
X31.3943Y-2.284
X31.3963Y2.023
X31.4113Y-4.79
X31.4133Y-1.882
X31.4143Y0.062
X31.4333Y0.142
X31.4363Y1.626
X31.4433Y1.343
X31.4503Y-6.776
X31.4513Y-5.409
X31.4513Y-6.853
X31.4523Y-2.284
X31.4613Y-1.492
X31.4703Y-2.866
X31.4723Y-2.163
X31.4743Y0.562
X31.4893Y-7.533
X31.4933Y-2.947
X31.5093Y-2.287
X31.5093Y-2.346
X31.5133Y1.922
X31.5293Y-1.865
X31.5323Y1.484
X31.5493Y-5.431
X31.5513Y-2.123
X31.5733Y1.043
X31.6083Y-7.233
X31.6083Y-7.997
X31.6083Y-8.637
X31.6103Y-1.824
X31.6133Y1.922
X31.6293Y-5.288
X31.6303Y-5.429
X31.6333Y1.125
X31.6503Y-2.746
X31.6503Y-7.036
X31.6723Y-1.861
X31.6893Y-5.971
X31.7123Y1.434
X31.7123Y0.743
X31.7123Y0.681
X31.7133Y1.584
X31.7133Y0.925
X31.7503Y-7.036
X31.7543Y1.634
X31.7693Y-5.388
X31.7723Y0.683
X31.7893Y-3.049
X31.7903Y0.925
X31.7903Y-6.552
X31.7913Y-0.858
X31.7943Y-2.846
X31.7943Y-2.947
X31.8103Y-2.685
X31.8133Y-0.779
X31.8143Y0.802
X31.8153Y0.741
X31.8293Y-8.829
X31.8313Y-1.482
X31.8493Y-2.884
X31.8503Y-1.181
X31.8513Y-2.787
X31.8513Y-3.094
X31.8523Y-0.858
X31.8533Y-3.009
X31.8543Y1.684
X31.8693Y-0.6
X31.8693Y-3.407
X31.8703Y-5.228
X31.8743Y1.604
X31.8743Y1.535
X31.8743Y0.925
X31.8883Y-6.231
X31.8883Y-6.431
X31.8883Y-8.898
X31.8893Y-6.131
X31.8903Y-5.529
X31.8903Y-5.631
X31.8903Y-5.726
X31.8903Y-5.93
X31.8903Y-6.333
X31.8913Y-5.428
X31.8913Y-5.83
X31.8913Y-6.032
X31.8923Y-0.777
X31.9103Y-6.632
X31.9323Y0.844
X31.9343Y0.923
X31.9493Y-5.977
X31.9533Y-3.426
X31.9713Y-0.26
X31.9883Y-6.232
X31.9893Y-5.428
X31.9893Y-5.731
X31.9893Y-6.032
X31.9893Y-6.331
X31.9903Y-5.629
X31.9903Y-7.035
X31.9913Y-5.53
X31.9913Y-5.831
X31.9923Y0.681
X31.9943Y0.581
X32.0093Y-6.431
X32.0113Y-0.319
X32.0123Y-0.78
X32.0123Y-0.839
X32.0293Y-4.99
X32.0303Y-5.068
X32.0323Y-0.961
X32.0503Y-1.183
X32.0513Y-2.567
X32.0513Y-2.679
X32.0513Y-2.907
X32.0513Y-3.007
X32.0523Y-1.924
X32.0523Y-2.042
X32.0533Y-1.984
X32.0543Y0.923
X32.0703Y-2.384
X32.0703Y-3.383
X32.0703Y-8.585
X32.0723Y1.383
X32.0743Y1.484
X32.0833Y0.038
X32.0843Y-8.373
X32.0883Y-5.831
X32.0883Y-8.836
X32.0893Y-7.697
X32.0893Y-8.917
X32.0903Y-5.53
X32.0903Y-7.173
X32.0913Y0.783
X32.0913Y0.181
X32.0913Y-2.826
X32.0913Y-4.291
X32.0923Y-0.019
X32.0923Y-5.631
X32.0933Y0.678
X32.0933Y0.381
X32.0943Y0.28
X32.0953Y-5.429
X32.1113Y-1.424
X32.1113Y-5.067
X32.1123Y-0.621
X32.1123Y-2.945
X32.1123Y-4.81
X32.1293Y-2.403
X32.1313Y-2.344
X32.1313Y-2.705
X32.1323Y-2.884
X32.1343Y0.863
X32.1423Y2.538
X32.1453Y2.434
X32.1453Y2.332
X32.1503Y-1.161
X32.1503Y-3.109
X32.1513Y-1.866
X32.1513Y-1.924
X32.1513Y-3.384
X32.1523Y-1.984
X32.1523Y-2.583
X32.1543Y1.902
X32.1563Y1.983
X32.1893Y-6.433
X32.1903Y-5.43
X32.1903Y-5.53
X32.1903Y-6.332
X32.1903Y-7.234
X32.1913Y-1.221
X32.1913Y-4.269
X32.1933Y0.78
X32.1933Y0.68
X32.1933Y0.402
X32.1943Y0.983
X32.1953Y1.685
X32.2103Y-0.978
X32.2103Y-1.866
X32.2103Y-2.343
X32.2113Y-2.424
X32.2113Y-3.049
X32.2123Y1.302
X32.2273Y-2.581
X32.2283Y-2.921
X32.2293Y-1.484
X32.2303Y-3.386
X32.2313Y0.098
X32.2383Y-3.128
X32.2433Y2.538
X32.2433Y2.434
X32.2433Y2.332
X32.2503Y-0.659
X32.2513Y-0.56
X32.2693Y-1.242
X32.2693Y-1.867
X32.2703Y-0.981
X32.2703Y-1.181
X32.2713Y-3.507
X32.2733Y1.902
X32.2733Y1.042
X32.2873Y-1.481
X32.2873Y-8.089
X32.2883Y-2.405
X32.2903Y-2.704
X32.2903Y-5.428
X32.2903Y-5.529
X32.2903Y-8.189
X32.2913Y-4.279
X32.2923Y0.782
X32.2933Y0.681
X32.3083Y-1.062
X32.3083Y-7.534
X32.3093Y-2.925
X32.3103Y-1.683
X32.3103Y-1.785
X32.3113Y1.303
X32.3123Y0.963
X32.3273Y-6.994
X32.3283Y-6.833
X32.3303Y-1.865
X32.3303Y-3.385
X32.3313Y-0.819
X32.3333Y1.043
X32.3483Y-3.526
X32.3503Y-1.442
X32.3513Y-1.222
X32.3633Y-3.129
X32.3703Y-1.723
X32.3703Y-1.784
X32.3703Y-4.281
X32.3713Y-2.705
X32.3733Y1.923
X32.3853Y0.383
X32.3883Y-3.385
X32.3893Y-6.432
X32.3903Y-1.32
X32.3903Y-5.53
X32.3903Y-5.63
X32.3903Y-5.733
X32.3903Y-6.23
X32.3913Y-5.428
X32.3923Y-3.444
X32.4123Y0.681
X32.4293Y-6.833
X32.4303Y-2.361
X32.4313Y-3.549
X32.4433Y1.265
X32.4513Y-2.024
X32.4523Y-1.523
X32.4533Y1.704
X32.4683Y-0.581
X32.4693Y-1.36
X32.4883Y-0.818
X32.4883Y-1.078
X32.4893Y-3.129
X32.4893Y-5.43
X32.4893Y-5.632
X32.4893Y-5.733
X32.4893Y-6.232
X32.4893Y-6.431
X32.4903Y-5.53
X32.4913Y0.031
X32.4923Y0.282
X32.4933Y0.68
X32.4933Y0.382
X32.4933Y0.181
X32.4933Y0.1
X32.5083Y-4.451
X32.5093Y-1.522
X32.5093Y-2.34
X32.5133Y0.801
X32.5143Y1.704
X32.5153Y-3.569
X32.5313Y-0.019
X32.5323Y1.284
X32.5333Y1.484
X32.5483Y-0.9
X32.5653Y-2.044
X32.5693Y-1.984
X32.5703Y-4.45
X32.5713Y-1.924
X32.5713Y-5.23
X32.5873Y-6.832
X32.5873Y-6.993
X32.5883Y-6.032
X32.5883Y-6.133
X32.5883Y-7.072
X32.5893Y-3.587
X32.5893Y-5.631
X32.5893Y-5.93
X32.5893Y-6.431
X32.5893Y-6.911
X32.5903Y-2.323
X32.5903Y-5.53
X32.5913Y-4.893
X32.5913Y-5.732
X32.5913Y-6.233
X32.5943Y0.58
X32.5943Y-5.428
X32.6103Y-1.283
X32.6103Y-6.632
X32.6113Y-1.183
X32.6143Y2.081
X32.6143Y1.922
X32.6153Y-3.13
X32.6283Y-8.829
X32.6303Y-4.828
X32.6313Y-0.682
X32.6313Y-0.761
X32.6313Y-1.924
X32.6323Y-0.6
X32.6323Y-0.882
X32.6343Y1.824
X32.6343Y0.824
X32.6523Y-0.24
X32.6523Y-0.321
X32.6693Y-2.324
X32.6703Y-3.608
X32.6713Y-0.138
X32.6723Y-4.891
X32.6733Y2.024
X32.6853Y-2.606
X32.6853Y-2.931
X32.6883Y-6.132
X32.6883Y-6.433
X32.6883Y-6.63
X32.6893Y-5.43
X32.6893Y-5.634
X32.6893Y-6.933
X32.6903Y-1.985
X32.6903Y-5.732
X32.6903Y-5.93
X32.6903Y-6.03
X32.6903Y-6.232
X32.6913Y-2.045
X32.6913Y-5.532
X32.6923Y-1.924
X32.6933Y0.481
X32.7133Y0.6
X32.7143Y-0.981
X32.7343Y0.984
X32.7343Y0.843
X32.7343Y0.722
X32.7413Y-3.129
X32.7503Y-1.924
X32.7503Y-3.606
X32.7743Y0.581
X32.7823Y-6.432
X32.7883Y-3.467
X32.7883Y-6.031
X32.7893Y-6.131
X32.7893Y-6.229
X32.7903Y-5.43
X32.7903Y-5.537
X32.7903Y-5.631
X32.7903Y-5.932
X32.7903Y-6.935
X32.7913Y-1.522
X32.7913Y-5.731
X32.7923Y-2.927
X32.7943Y0.681
X32.8123Y-1.925
X32.8133Y-1.983
X32.8143Y0.963
X32.8143Y0.904
X32.8143Y0.804
X32.8173Y-2.044
X32.8293Y-6.995
X32.8303Y-5.192
X32.8313Y-2.685
X32.8313Y-2.745
X32.8313Y-2.824
X32.8323Y2.076
X32.8343Y2.002
X32.8663Y-3.13
X32.8683Y-2.527
X32.8693Y-6.427
X32.8703Y-0.94
X32.8703Y-3.446
X32.8703Y-5.41
X32.8713Y-1.003
X32.8713Y-3.307
X32.8713Y-5.932
X32.8723Y0.903
X32.8723Y-1.524
X32.8733Y0.66
X32.8893Y-5.192
X32.8893Y-6.934
X32.8913Y-6.135
X32.8923Y-0.12
X32.8933Y0.18
X32.8933Y-2.065
X32.8943Y0.781
X32.8953Y0.583
X32.9113Y-1.924
X32.9293Y-2.427
X32.9303Y-2.486
X32.9303Y-2.586
X32.9303Y-2.806
X32.9313Y-2.654
X32.9313Y-5.252
X32.9333Y1.504
X32.9333Y-2.931
X32.9343Y0.664
X32.9483Y-5.371
X32.9503Y-1.003
X32.9503Y-2.145
X32.9513Y0.822
X32.9513Y-0.941
X32.9513Y-1.523
X32.9683Y-5.31
X32.9693Y-3.288
X32.9693Y-5.174
X32.9713Y1.423
X32.9723Y1.364
X32.9883Y-3.689
X32.9923Y0.179
X32.9923Y-0.52
X33.0003Y-0.226
X33.0073Y-6.473
X33.0123Y1.504
X33.0293Y-5.352
X33.0303Y-2.143
X33.0313Y-1.003
X33.0473Y-3.149
X33.0483Y-5.21
X33.0493Y-3.266
X33.0493Y-5.272
X33.0533Y1.443
X33.0683Y-6.673
X33.0693Y-3.688
X33.0723Y-0.522
X33.0863Y-6.955
X33.0883Y-6.775
X33.0893Y-7.077
X33.0903Y-0.942
X33.0923Y-0.122
X33.0933Y1.523
X33.1083Y-6.595
X33.1103Y-3.027
X33.1273Y-2.588
X33.1283Y-2.345
X33.1283Y-2.465
X33.1283Y-2.523
X33.1293Y-2.403
X33.1293Y-3.27
X33.1293Y-6.897
X33.1293Y-7.016
X33.1303Y-2.286
X33.1303Y-3.109
X33.1303Y-3.188
X33.1313Y-6.715
X33.1333Y1.461
X33.1483Y-0.502
X33.1483Y-8.717
X33.1533Y0.523
X33.1703Y-2.885
X33.1703Y-2.966
X33.1883Y-5.891
X33.1913Y0.05
X33.1933Y0.58
X33.2103Y-1.004
X33.2133Y1.483
X33.2133Y0.24
X33.2273Y-6.192
X33.2273Y-6.272
X33.2303Y-0.504
X33.2323Y0.7
X33.2383Y0.523
X33.2503Y-1.565
X33.2703Y-3.026
X33.2893Y-5.911
X33.2903Y-5.833
X33.2903Y-6.235
X33.2923Y0.64
X33.2923Y-0.12
X33.2933Y-0.322
X33.2943Y0.88
X33.2943Y0.28
X33.3263Y-6.443
X33.3303Y-1.485
X33.3313Y-0.943
X33.3313Y-1.001
X33.3313Y-1.566
X33.3323Y-0.502
X33.3333Y2.022
X33.3473Y-1.927
X33.3513Y-1.985
X33.3513Y-2.045
X33.3693Y-6.092
X33.3893Y-6.172
X33.4113Y-0.525
X33.4113Y-0.942
X33.4113Y-1.005
X33.419Y1.64
X33.4233Y-8.717
X33.4253Y-8.83
X33.4273Y-5.933
X33.429Y1.821
X33.4293Y-5.812
X33.4303Y-1.485
X33.4303Y-1.566
X33.4423Y-6.444
X33.4533Y0.531
X33.464Y1.892
X33.4723Y-2.045
X33.4883Y-5.531
X33.4893Y-5.633
X33.4903Y-1.003
X33.4913Y-0.22
X33.4923Y0.982
X33.4923Y0.342
X33.4923Y0.279
X33.4923Y-0.12
X33.4923Y-0.941
X33.4933Y0.781
X33.4933Y-0.301
X33.5323Y-1.525
X33.5563Y2.224
X33.5683Y1.356
X33.5703Y-3.469
X33.5713Y-0.942
X33.5713Y-1.004
X33.5903Y0.64
X33.5903Y-2.728
X33.5913Y-2.81
X33.5933Y-3.154
X33.601Y1.387
X33.6113Y-2.949
X33.6123Y-0.523
X33.6313Y-2.186
X33.6313Y-2.245
X33.6323Y-2.125
X33.6513Y-1.525
X33.6513Y-3.106
X33.6513Y-3.205
X33.6523Y-3.468
X33.667Y1.656
X33.6703Y-1.927
X33.6713Y-2.007
X33.6913Y-2.067
X33.6923Y0.821
X33.6933Y1.432
X33.6933Y1.003
X33.6943Y0.924
X33.7123Y0.401
X33.72Y1.656
X33.7323Y0.238
X33.7433Y1.432
X33.7503Y-0.523
X33.7513Y-0.302
X33.7513Y-4.569
X33.7523Y-0.44
X33.753Y-9.32
X33.7563Y-0.041
X33.7693Y-2.467
X33.7693Y-2.626
X33.7713Y-2.545
X33.7883Y-1.552
X33.79Y-9.288
X33.7913Y-0.881
X33.7933Y1.432
X33.8243Y-0.528
X33.827Y1.877
X33.8303Y-3.628
X33.8313Y-3.549
X33.8343Y1.939
X33.8503Y-2.93
X33.8503Y-3.032
X33.8713Y-0.943
X33.8903Y-0.781
X33.8923Y0.178
X33.8943Y1.981
X33.9293Y-3.031
X33.9303Y-3.549
X33.9313Y-2.026
X33.9313Y-2.929
X33.932Y1.637
X33.9513Y-3.155
X33.9523Y-0.943
X33.9523Y-3.255
X33.9703Y-1.965
X33.9833Y2.096
X33.9923Y-4.63
X34.0103Y-3.551
X34.0113Y-2.025
X34.016Y1.3866
X34.0293Y-3.65
X34.0513Y-1.965
X34.0543Y1.88
X34.072Y1.388
X34.0913Y-2.026
X34.1133Y0.339
X34.1143Y-8.509
X34.126Y1.742
X34.127Y1.823
X34.1293Y-3.055
X34.1303Y-2.955
X34.1313Y-3.205
X34.1323Y-1.967
X34.136Y-8.737
X34.147Y1.911
X34.1473Y0.401
X34.1513Y-3.63
X34.155Y1.849
X34.162Y-9.317
X34.163Y1.672
X34.1713Y-3.004
X34.1713Y-3.105
X34.192Y1.475
X34.2075Y-9.2715
X34.2303Y-3.63
X34.248Y-9.231
X34.26Y-5.75
X34.27Y1.67
X34.2893Y-6.637
X34.2913Y-2.329
X34.2913Y-2.408
X34.292Y1.605
X34.2933Y2.283
X34.2933Y0.92
X34.2933Y0.779
X34.2943Y1.12
X34.2943Y1.0
X34.2943Y0.839
X34.2953Y1.06
X34.3013Y1.775
X34.354Y1.547
X34.3543Y0.88
X34.3553Y0.96
X34.3563Y-6.899
X34.3883Y-7.28
X34.3913Y-0.724
X34.4063Y-0.865
X34.4073Y-6.279
X34.4523Y-0.724
X34.4722Y1.5448
X34.484Y-5.78
X34.4873Y-7.279
X34.4873Y-8.301
X34.4883Y-6.411
X34.497Y-5.816
X34.517Y-5.752
X34.5483Y-6.376
X34.5643Y-6.914
X34.582Y-5.895
X34.585Y1.399
X34.591Y1.653
X34.6419Y1.417
X34.651Y1.673
X34.6883Y-6.641
X34.7123Y1.546
X34.719Y1.347
X34.72Y1.38
X34.728Y0.798
X34.746Y1.575
X34.746Y1.402
X34.7493Y-4.491
X34.7493Y-4.544
X34.7503Y-6.38
X34.772Y0.796
X34.834Y-5.279
X34.8813Y-4.795
X34.8813Y-5.063
X34.886Y1.673
X34.891Y1.512
X34.976Y-5.3297
X34.976Y-5.412
X34.976Y-5.485
X35.012Y1.046
X35.03Y0.291
T2
X27.2983Y0.283
X27.2983Y0.183
X34.2891Y-5.8288
X34.2891Y-5.9288
T3
X25.187Y-8.012
X25.237Y-7.962
X25.287Y-8.012
T4
X24.3993Y-0.321
X24.3993Y-0.421
X24.3993Y-0.521
X24.3993Y-0.621
X24.3993Y-0.721
X24.3993Y-0.821
X24.3993Y-0.921
X24.3993Y-1.021
X24.3993Y-1.121
X24.3993Y-1.221
X24.3993Y-1.321
X24.3993Y-1.421
X24.3993Y-1.521
X24.3993Y-1.621
X24.3993Y-1.721
X24.3993Y-1.821
X24.3993Y-1.921
X24.3993Y-2.021
X24.3993Y-2.121
X24.3993Y-2.221
X24.3993Y-2.321
X24.3993Y-2.421
X24.3993Y-2.521
X24.3993Y-2.621
X24.3993Y-2.721
X24.3993Y-2.821
X24.3993Y-2.921
X24.3993Y-3.021
X24.3993Y-3.121
X24.3993Y-3.221
X24.3993Y-3.321
X24.3993Y-3.421
X24.4993Y-0.321
X24.4993Y-0.421
X24.4993Y-0.521
X24.4993Y-0.621
X24.4993Y-0.721
X24.4993Y-0.821
X24.4993Y-0.921
X24.4993Y-1.021
X24.4993Y-1.121
X24.4993Y-1.221
X24.4993Y-1.321
X24.4993Y-1.421
X24.4993Y-1.521
X24.4993Y-1.621
X24.4993Y-1.721
X24.4993Y-1.821
X24.4993Y-1.921
X24.4993Y-2.021
X24.4993Y-2.121
X24.4993Y-2.221
X24.4993Y-2.321
X24.4993Y-2.421
X24.4993Y-2.521
X24.4993Y-2.621
X24.4993Y-2.721
X24.4993Y-2.821
X24.4993Y-2.921
X24.4993Y-3.021
X24.4993Y-3.121
X24.4993Y-3.221
X24.4993Y-3.321
X24.4993Y-3.421
X24.5993Y-0.321
X24.5993Y-0.421
X24.5993Y-0.521
X24.5993Y-0.621
X24.5993Y-0.721
X24.5993Y-0.821
X24.5993Y-0.921
X24.5993Y-1.021
X24.5993Y-1.121
X24.5993Y-1.221
X24.5993Y-1.321
X24.5993Y-1.421
X24.5993Y-1.521
X24.5993Y-1.621
X24.5993Y-1.721
X24.5993Y-1.821
X24.5993Y-1.921
X24.5993Y-2.021
X24.5993Y-2.121
X24.5993Y-2.221
X24.5993Y-2.321
X24.5993Y-2.421
X24.5993Y-2.521
X24.5993Y-2.621
X24.5993Y-2.721
X24.5993Y-2.821
X24.5993Y-2.921
X24.5993Y-3.021
X24.5993Y-3.121
X24.5993Y-3.221
X24.5993Y-3.321
X24.5993Y-3.421
X25.3493Y-0.321
X25.3493Y-0.421
X25.3493Y-0.521
X25.3493Y-0.621
X25.3493Y-0.721
X25.3493Y-0.821
X25.3493Y-0.921
X25.3493Y-1.021
X25.3493Y-1.121
X25.3493Y-1.221
X25.3493Y-1.321
X25.3493Y-1.421
X25.3493Y-1.521
X25.3493Y-1.621
X25.3493Y-1.721
X25.3493Y-1.821
X25.3493Y-1.921
X25.3493Y-2.021
X25.3493Y-2.121
X25.3493Y-2.221
X25.3493Y-2.321
X25.3493Y-2.421
X25.3493Y-2.521
X25.3493Y-2.621
X25.3493Y-2.721
X25.3493Y-2.821
X25.3493Y-2.921
X25.3493Y-3.021
X25.3493Y-3.121
X25.3493Y-3.221
X25.3493Y-3.321
X25.3493Y-3.421
X25.4493Y-0.321
X25.4493Y-0.421
X25.4493Y-0.521
X25.4493Y-0.621
X25.4493Y-0.721
X25.4493Y-0.821
X25.4493Y-0.921
X25.4493Y-1.021
X25.4493Y-1.121
X25.4493Y-1.221
X25.4493Y-1.321
X25.4493Y-1.421
X25.4493Y-1.521
X25.4493Y-1.621
X25.4493Y-1.721
X25.4493Y-1.821
X25.4493Y-1.921
X25.4493Y-2.021
X25.4493Y-2.121
X25.4493Y-2.221
X25.4493Y-2.321
X25.4493Y-2.421
X25.4493Y-2.521
X25.4493Y-2.621
X25.4493Y-2.721
X25.4493Y-2.821
X25.4493Y-2.921
X25.4493Y-3.021
X25.4493Y-3.121
X25.4493Y-3.221
X25.4493Y-3.321
X25.4493Y-3.421
X25.5493Y-0.321
X25.5493Y-0.421
X25.5493Y-0.521
X25.5493Y-0.621
X25.5493Y-0.721
X25.5493Y-0.821
X25.5493Y-0.921
X25.5493Y-1.021
X25.5493Y-1.121
X25.5493Y-1.221
X25.5493Y-1.321
X25.5493Y-1.421
X25.5493Y-1.521
X25.5493Y-1.621
X25.5493Y-1.721
X25.5493Y-1.821
X25.5493Y-1.921
X25.5493Y-2.021
X25.5493Y-2.121
X25.5493Y-2.221
X25.5493Y-2.321
X25.5493Y-2.421
X25.5493Y-2.521
X25.5493Y-2.621
X25.5493Y-2.721
X25.5493Y-2.821
X25.5493Y-2.921
X25.5493Y-3.021
X25.5493Y-3.121
X25.5493Y-3.221
X25.5493Y-3.321
X25.5493Y-3.421
X26.2963Y-0.321
X26.2963Y-0.421
X26.2963Y-0.521
X26.2963Y-0.621
X26.2963Y-0.721
X26.2963Y-0.821
X26.2963Y-0.921
X26.2963Y-1.021
X26.2963Y-1.121
X26.2963Y-1.221
X26.2963Y-1.321
X26.2963Y-1.421
X26.2963Y-1.521
X26.2963Y-1.621
X26.2963Y-1.721
X26.2963Y-1.821
X26.2963Y-1.921
X26.2963Y-2.021
X26.2963Y-2.121
X26.2963Y-2.221
X26.2963Y-2.321
X26.2963Y-2.421
X26.2963Y-2.521
X26.2963Y-2.621
X26.2963Y-2.721
X26.2963Y-2.821
X26.2963Y-2.921
X26.2963Y-3.021
X26.2963Y-3.121
X26.2963Y-3.221
X26.2963Y-3.321
X26.2963Y-3.421
X26.3963Y-0.321
X26.3963Y-0.421
X26.3963Y-0.521
X26.3963Y-0.621
X26.3963Y-0.721
X26.3963Y-0.821
X26.3963Y-0.921
X26.3963Y-1.021
X26.3963Y-1.121
X26.3963Y-1.221
X26.3963Y-1.321
X26.3963Y-1.421
X26.3963Y-1.521
X26.3963Y-1.621
X26.3963Y-1.721
X26.3963Y-1.821
X26.3963Y-1.921
X26.3963Y-2.021
X26.3963Y-2.121
X26.3963Y-2.221
X26.3963Y-2.321
X26.3963Y-2.421
X26.3963Y-2.521
X26.3963Y-2.621
X26.3963Y-2.721
X26.3963Y-2.821
X26.3963Y-2.921
X26.3963Y-3.021
X26.3963Y-3.121
X26.3963Y-3.221
X26.3963Y-3.321
X26.3963Y-3.421
X26.4963Y-0.321
X26.4963Y-0.421
X26.4963Y-0.521
X26.4963Y-0.621
X26.4963Y-0.721
X26.4963Y-0.821
X26.4963Y-0.921
X26.4963Y-1.021
X26.4963Y-1.121
X26.4963Y-1.221
X26.4963Y-1.321
X26.4963Y-1.421
X26.4963Y-1.521
X26.4963Y-1.621
X26.4963Y-1.721
X26.4963Y-1.821
X26.4963Y-1.921
X26.4963Y-2.021
X26.4963Y-2.121
X26.4963Y-2.221
X26.4963Y-2.321
X26.4963Y-2.421
X26.4963Y-2.521
X26.4963Y-2.621
X26.4963Y-2.721
X26.4963Y-2.821
X26.4963Y-2.921
X26.4963Y-3.021
X26.4963Y-3.121
X26.4963Y-3.221
X26.4963Y-3.321
X26.4963Y-3.421
T5
X24.6048Y1.982
X24.6048Y1.682
X24.7048Y1.982
X24.7048Y1.682
X24.8048Y1.982
X24.8048Y1.682
X24.9048Y1.982
X24.9048Y1.682
X26.5003Y-6.526
X26.5003Y-7.126
X26.8003Y-6.526
X26.8003Y-7.126
X27.3913Y-5.933
X27.3913Y-6.033
X27.3913Y-6.133
X27.3913Y-6.233
X27.3913Y-6.333
X27.3913Y-6.433
X27.3913Y-6.533
X27.3913Y-6.633
X27.3913Y-6.733
X27.3913Y-6.833
X27.3913Y-6.933
X27.3913Y-7.033
X27.3913Y-7.133
X27.3913Y-7.233
X27.3913Y-7.333
X27.3913Y-7.433
X27.3913Y-7.533
X27.3913Y-7.633
X27.3913Y-7.733
X27.3913Y-7.833
X27.3913Y-7.933
X27.3913Y-8.033
X27.3913Y-8.133
X27.3913Y-8.233
X27.3913Y-8.333
X27.3913Y-8.433
X27.3913Y-8.533
X27.3913Y-8.633
X27.3913Y-8.733
X27.3913Y-8.833
X27.7913Y-5.933
X27.7913Y-6.033
X27.7913Y-6.133
X27.7913Y-6.233
X27.7913Y-6.333
X27.7913Y-6.433
X27.7913Y-6.533
X27.7913Y-6.633
X27.7913Y-6.733
X27.7913Y-6.833
X27.7913Y-6.933
X27.7913Y-7.033
X27.7913Y-7.133
X27.7913Y-7.233
X27.7913Y-7.333
X27.7913Y-7.433
X27.7913Y-7.533
X27.7913Y-7.633
X27.7913Y-7.733
X27.7913Y-7.833
X27.7913Y-7.933
X27.7913Y-8.033
X27.7913Y-8.133
X27.7913Y-8.233
X27.7913Y-8.333
X27.7913Y-8.433
X27.7913Y-8.533
X27.7913Y-8.633
X27.7913Y-8.733
X27.7913Y-8.833
X28.1903Y-5.933
X28.1903Y-6.033
X28.1903Y-6.133
X28.1903Y-6.233
X28.1903Y-6.333
X28.1903Y-6.433
X28.1903Y-6.533
X28.1903Y-6.633
X28.1903Y-6.733
X28.1903Y-6.833
X28.1903Y-6.933
X28.1903Y-7.033
X28.1903Y-7.133
X28.1903Y-7.233
X28.1903Y-7.333
X28.1903Y-7.433
X28.1903Y-7.533
X28.1903Y-7.633
X28.1903Y-7.733
X28.1903Y-7.833
X28.1903Y-7.933
X28.1903Y-8.033
X28.1903Y-8.133
X28.1903Y-8.233
X28.1903Y-8.333
X28.1903Y-8.433
X28.1903Y-8.533
X28.1903Y-8.633
X28.1903Y-8.733
X28.1903Y-8.833
X28.2983Y-0.423
X28.2983Y-0.523
X28.2983Y-0.623
X28.2983Y-0.723
X28.2983Y-0.823
X28.2983Y-0.923
X28.2983Y-1.023
X28.2983Y-1.123
X28.2983Y-1.223
X28.2983Y-1.323
X28.2983Y-1.423
X28.2983Y-1.523
X28.2983Y-1.623
X28.2983Y-1.723
X28.2983Y-1.823
X28.2983Y-1.923
X28.2983Y-2.223
X28.2983Y-2.323
X28.2983Y-2.423
X28.2983Y-2.523
X28.2983Y-2.623
X28.2983Y-2.723
X28.2983Y-2.823
X28.2983Y-2.923
X28.2983Y-3.023
X28.2983Y-3.123
X28.2983Y-3.223
X28.2983Y-3.323
X28.2983Y-3.423
X28.2983Y-3.523
X28.2983Y-3.623
X28.2983Y-3.723
X28.3983Y-0.373
X28.3983Y-0.473
X28.3983Y-0.573
X28.3983Y-0.673
X28.3983Y-0.773
X28.3983Y-0.873
X28.3983Y-0.973
X28.3983Y-1.073
X28.3983Y-1.173
X28.3983Y-1.273
X28.3983Y-1.373
X28.3983Y-1.473
X28.3983Y-1.573
X28.3983Y-1.673
X28.3983Y-1.773
X28.3983Y-1.873
X28.3983Y-2.173
X28.3983Y-2.273
X28.3983Y-2.373
X28.3983Y-2.473
X28.3983Y-2.573
X28.3983Y-2.673
X28.3983Y-2.773
X28.3983Y-2.873
X28.3983Y-2.973
X28.3983Y-3.073
X28.3983Y-3.173
X28.3983Y-3.273
X28.3983Y-3.373
X28.3983Y-3.473
X28.3983Y-3.573
X28.3983Y-3.673
X28.5903Y-5.933
X28.5903Y-6.033
X28.5903Y-6.133
X28.5903Y-6.233
X28.5903Y-6.333
X28.5903Y-6.433
X28.5903Y-6.533
X28.5903Y-6.633
X28.5903Y-6.733
X28.5903Y-6.833
X28.5903Y-6.933
X28.5903Y-7.033
X28.5903Y-7.133
X28.5903Y-7.233
X28.5903Y-7.333
X28.5903Y-7.433
X28.5903Y-7.533
X28.5903Y-7.633
X28.5903Y-7.733
X28.5903Y-7.833
X28.5903Y-7.933
X28.5903Y-8.033
X28.5903Y-8.133
X28.5903Y-8.233
X28.5903Y-8.333
X28.5903Y-8.433
X28.5903Y-8.533
X28.5903Y-8.633
X28.5903Y-8.733
X28.5903Y-8.833
X28.7453Y-0.221
X28.7453Y-0.321
X28.7453Y-0.421
X28.7453Y-0.521
X28.7453Y-0.621
X28.7453Y-0.721
X28.7453Y-0.821
X28.7453Y-0.921
X28.7453Y-1.021
X28.7453Y-1.121
X28.7453Y-1.221
X28.7453Y-1.321
X28.7453Y-1.421
X28.7453Y-1.521
X28.7453Y-1.621
X28.7453Y-1.721
X28.7453Y-1.821
X28.7453Y-1.921
X28.7453Y-2.021
X28.7453Y-2.121
X28.7453Y-2.221
X28.7453Y-2.321
X28.7453Y-2.421
X28.7453Y-2.521
X28.7453Y-2.621
X28.7453Y-2.721
X28.7453Y-2.821
X28.7453Y-2.921
X28.7453Y-3.021
X28.7453Y-3.121
X28.7453Y-3.221
X28.7453Y-3.321
X28.7453Y-3.421
X28.7453Y-3.521
X28.7453Y-3.621
X28.7453Y-3.721
X28.7453Y-3.821
X28.7453Y-3.921
X28.7453Y-4.021
X28.7453Y-4.121
X28.8453Y-0.221
X28.8453Y-0.321
X28.8453Y-0.421
X28.8453Y-0.521
X28.8453Y-0.621
X28.8453Y-0.721
X28.8453Y-0.821
X28.8453Y-0.921
X28.8453Y-1.021
X28.8453Y-1.121
X28.8453Y-1.221
X28.8453Y-1.321
X28.8453Y-1.421
X28.8453Y-1.521
X28.8453Y-1.621
X28.8453Y-1.721
X28.8453Y-1.821
X28.8453Y-1.921
X28.8453Y-2.021
X28.8453Y-2.121
X28.8453Y-2.221
X28.8453Y-2.321
X28.8453Y-2.421
X28.8453Y-2.521
X28.8453Y-2.621
X28.8453Y-2.721
X28.8453Y-2.821
X28.8453Y-2.921
X28.8453Y-3.021
X28.8453Y-3.121
X28.8453Y-3.221
X28.8453Y-3.321
X28.8453Y-3.421
X28.8453Y-3.521
X28.8453Y-3.621
X28.8453Y-3.721
X28.8453Y-3.821
X28.8453Y-3.921
X28.8453Y-4.021
X28.8453Y-4.121
X28.9453Y-0.221
X28.9453Y-0.321
X28.9453Y-0.421
X28.9453Y-0.521
X28.9453Y-0.621
X28.9453Y-0.721
X28.9453Y-0.821
X28.9453Y-0.921
X28.9453Y-1.021
X28.9453Y-1.121
X28.9453Y-1.221
X28.9453Y-1.321
X28.9453Y-1.421
X28.9453Y-1.521
X28.9453Y-1.621
X28.9453Y-1.721
X28.9453Y-1.821
X28.9453Y-1.921
X28.9453Y-2.021
X28.9453Y-2.121
X28.9453Y-2.221
X28.9453Y-2.321
X28.9453Y-2.421
X28.9453Y-2.521
X28.9453Y-2.621
X28.9453Y-2.721
X28.9453Y-2.821
X28.9453Y-2.921
X28.9453Y-3.021
X28.9453Y-3.121
X28.9453Y-3.221
X28.9453Y-3.321
X28.9453Y-3.421
X28.9453Y-3.521
X28.9453Y-3.621
X28.9453Y-3.721
X28.9453Y-3.821
X28.9453Y-3.921
X28.9453Y-4.021
X28.9453Y-4.121
X28.9893Y-5.933
X28.9893Y-6.033
X28.9893Y-6.133
X28.9893Y-6.233
X28.9893Y-6.333
X28.9893Y-6.433
X28.9893Y-6.533
X28.9893Y-6.633
X28.9893Y-6.733
X28.9893Y-6.833
X28.9893Y-6.933
X28.9893Y-7.033
X28.9893Y-7.133
X28.9893Y-7.233
X28.9893Y-7.333
X28.9893Y-7.433
X28.9893Y-7.533
X28.9893Y-7.633
X28.9893Y-7.733
X28.9893Y-7.833
X28.9893Y-7.933
X28.9893Y-8.033
X28.9893Y-8.133
X28.9893Y-8.233
X28.9893Y-8.333
X28.9893Y-8.433
X28.9893Y-8.533
X28.9893Y-8.633
X28.9893Y-8.733
X28.9893Y-8.833
X29.2943Y-0.217
X29.2943Y-0.517
X29.2943Y-0.818
X29.2943Y-1.118
X29.2943Y-1.423
X29.2943Y-1.723
X29.3893Y-5.933
X29.3893Y-6.033
X29.3893Y-6.133
X29.3893Y-6.233
X29.3893Y-6.333
X29.3893Y-6.433
X29.3893Y-6.533
X29.3893Y-6.633
X29.3893Y-6.733
X29.3893Y-6.833
X29.3893Y-6.933
X29.3893Y-7.033
X29.3893Y-7.133
X29.3893Y-7.233
X29.3893Y-7.333
X29.3893Y-7.433
X29.3893Y-7.533
X29.3893Y-7.633
X29.3893Y-7.733
X29.3893Y-7.833
X29.3893Y-7.933
X29.3893Y-8.033
X29.3893Y-8.133
X29.3893Y-8.233
X29.3893Y-8.333
X29.3893Y-8.433
X29.3893Y-8.533
X29.3893Y-8.633
X29.3893Y-8.733
X29.3893Y-8.833
X29.7883Y-5.933
X29.7883Y-6.033
X29.7883Y-6.133
X29.7883Y-6.233
X29.7883Y-6.333
X29.7883Y-6.433
X29.7883Y-6.533
X29.7883Y-6.633
X29.7883Y-6.733
X29.7883Y-6.833
X29.7883Y-6.933
X29.7883Y-7.033
X29.7883Y-7.133
X29.7883Y-7.233
X29.7883Y-7.333
X29.7883Y-7.433
X29.7883Y-7.533
X29.7883Y-7.633
X29.7883Y-7.733
X29.7883Y-7.833
X29.7883Y-7.933
X29.7883Y-8.033
X29.7883Y-8.133
X29.7883Y-8.233
X29.7883Y-8.333
X29.7883Y-8.433
X29.7883Y-8.533
X29.7883Y-8.633
X29.7883Y-8.733
X29.7883Y-8.833
X29.8943Y-0.217
X29.8943Y-0.517
X29.8943Y-0.818
X29.8943Y-1.118
X29.8943Y-1.423
X29.8943Y-1.723
X30.1883Y-5.933
X30.1883Y-6.033
X30.1883Y-6.133
X30.1883Y-6.233
X30.1883Y-6.333
X30.1883Y-6.433
X30.1883Y-6.533
X30.1883Y-6.633
X30.1883Y-6.733
X30.1883Y-6.833
X30.1883Y-6.933
X30.1883Y-7.033
X30.1883Y-7.133
X30.1883Y-7.233
X30.1883Y-7.333
X30.1883Y-7.433
X30.1883Y-7.533
X30.1883Y-7.633
X30.1883Y-7.733
X30.1883Y-7.833
X30.1883Y-7.933
X30.1883Y-8.033
X30.1883Y-8.133
X30.1883Y-8.233
X30.1883Y-8.333
X30.1883Y-8.433
X30.1883Y-8.533
X30.1883Y-8.633
X30.1883Y-8.733
X30.1883Y-8.833
X30.5893Y-7.329
X30.5893Y-7.429
X30.5893Y-7.529
X30.5893Y-7.629
X30.5893Y-7.729
X30.5893Y-7.829
X30.5893Y-7.929
X30.5893Y-8.029
X30.5893Y-8.129
X30.5893Y-8.229
X30.5893Y-8.329
X30.5893Y-8.429
X30.5893Y-8.529
X30.5893Y-8.629
X30.5893Y-8.729
X30.5893Y-8.829
X31.1893Y-7.329
X31.1893Y-7.429
X31.1893Y-7.529
X31.1893Y-7.629
X31.1893Y-7.729
X31.1893Y-7.829
X31.1893Y-7.929
X31.1893Y-8.029
X31.1893Y-8.129
X31.1893Y-8.229
X31.1893Y-8.329
X31.1893Y-8.429
X31.1893Y-8.529
X31.1893Y-8.629
X31.1893Y-8.729
X31.1893Y-8.829
X31.3893Y-7.329
X31.3893Y-7.429
X31.3893Y-7.529
X31.3893Y-7.629
X31.3893Y-7.729
X31.3893Y-7.829
X31.3893Y-7.929
X31.3893Y-8.029
X31.3893Y-8.129
X31.3893Y-8.229
X31.3893Y-8.329
X31.3893Y-8.429
X31.3893Y-8.529
X31.3893Y-8.629
X31.3893Y-8.729
X31.3893Y-8.829
X31.9893Y-7.329
X31.9893Y-7.429
X31.9893Y-7.529
X31.9893Y-7.629
X31.9893Y-7.729
X31.9893Y-7.829
X31.9893Y-7.929
X31.9893Y-8.029
X31.9893Y-8.129
X31.9893Y-8.229
X31.9893Y-8.329
X31.9893Y-8.429
X31.9893Y-8.529
X31.9893Y-8.629
X31.9893Y-8.729
X31.9893Y-8.829
X32.1893Y-7.329
X32.1893Y-7.429
X32.1893Y-7.529
X32.1893Y-7.629
X32.1893Y-7.729
X32.1893Y-7.829
X32.1893Y-7.929
X32.1893Y-8.029
X32.1893Y-8.129
X32.1893Y-8.229
X32.1893Y-8.329
X32.1893Y-8.429
X32.1893Y-8.529
X32.1893Y-8.629
X32.1893Y-8.729
X32.1893Y-8.829
X32.7893Y-7.329
X32.7893Y-7.429
X32.7893Y-7.529
X32.7893Y-7.629
X32.7893Y-7.729
X32.7893Y-7.829
X32.7893Y-7.929
X32.7893Y-8.029
X32.7893Y-8.129
X32.7893Y-8.229
X32.7893Y-8.329
X32.7893Y-8.429
X32.7893Y-8.529
X32.7893Y-8.629
X32.7893Y-8.729
X32.7893Y-8.829
X32.9863Y-7.329
X32.9863Y-7.429
X32.9863Y-7.529
X32.9863Y-7.629
X32.9863Y-7.729
X32.9863Y-7.829
X32.9863Y-7.929
X32.9863Y-8.029
X32.9863Y-8.129
X32.9863Y-8.229
X32.9863Y-8.329
X32.9863Y-8.429
X32.9863Y-8.529
X32.9863Y-8.629
X32.9863Y-8.729
X32.9863Y-8.829
X33.2893Y-6.126
X33.2893Y-6.726
X33.5863Y-7.329
X33.5863Y-7.429
X33.5863Y-7.529
X33.5863Y-7.629
X33.5863Y-7.729
X33.5863Y-7.829
X33.5863Y-7.929
X33.5863Y-8.029
X33.5863Y-8.129
X33.5863Y-8.229
X33.5863Y-8.329
X33.5863Y-8.429
X33.5863Y-8.529
X33.5863Y-8.629
X33.5863Y-8.729
X33.5863Y-8.829
X33.5893Y-6.126
X33.5893Y-6.726
X34.397Y-5.683
X34.397Y-5.983
X34.497Y-5.683
X34.497Y-5.983
X34.5585Y-5.517
X34.597Y-5.683
X34.597Y-5.983
X34.66Y1.21
X34.66Y1.11
X34.66Y1.01
X34.66Y0.91
X34.66Y0.81
X34.66Y0.71
X34.66Y0.61
X34.66Y0.51
X34.66Y0.41
X34.697Y-5.683
X34.697Y-5.983
X34.7507Y-5.517
X34.96Y1.21
X34.96Y1.11
X34.96Y1.01
X34.96Y0.91
X34.96Y0.81
X34.96Y0.71
X34.96Y0.61
X34.96Y0.51
X34.96Y0.41
T6
X33.9463Y-8.889
X33.9463Y-8.989
T7
X24.7458Y2.416
X24.7458Y2.3176
X25.0056Y2.416
X25.0056Y2.3176
X25.1973Y1.779
X25.5038Y2.415
X25.5038Y2.3166
X25.6926Y1.779
X25.7636Y2.415
X25.7636Y2.3166
X26.2238Y2.24
X26.2238Y2.14
X26.3238Y2.24
X26.3238Y2.14
X26.4238Y2.24
X26.4238Y2.14
X26.4933Y-9.225
X26.5933Y-9.225
X26.8861Y2.414
X26.8861Y2.3156
X26.9648Y2.414
X26.9648Y2.3156
X27.0435Y2.3156
X27.0632Y2.414
X27.1459Y2.414
X27.1459Y2.3156
X27.6416Y2.414
X27.6416Y2.3156
X27.7204Y2.414
X27.7204Y2.3156
X27.7991Y2.3156
X27.8188Y2.414
X27.9015Y2.414
X27.9015Y2.3156
X28.6751Y2.3152
X28.7296Y2.427
X28.7842Y2.3152
X28.8387Y2.427
X28.8932Y2.3152
X28.9477Y2.427
X29.0023Y2.3152
X29.0568Y2.427
X29.1113Y2.3152
X29.1659Y2.427
X29.2204Y2.3152
X29.2749Y2.427
X29.3294Y2.3152
X29.384Y2.427
X29.4385Y2.3152
X29.6943Y-3.9238
X29.6943Y-4.0238
X30.0953Y-2.921
X30.0953Y-3.021
X30.0953Y-3.121
X30.4074Y2.3152
X30.4619Y2.427
X30.5165Y2.3152
X30.571Y2.427
X30.6255Y2.3152
X30.6801Y2.427
X30.7346Y2.3152
X30.7891Y2.427
X30.8436Y2.3152
X30.8982Y2.427
X30.9527Y2.3152
X31.0072Y2.427
X31.0617Y2.3152
X31.1163Y2.427
X31.1708Y2.3152
X31.2253Y2.427
X31.2799Y2.3152
X31.3344Y2.427
X31.3889Y2.3152
X31.4434Y2.427
X31.4698Y-4.42
X31.4698Y-4.52
X31.498Y2.3152
X31.5525Y2.427
X31.5698Y-4.42
X31.5698Y-4.52
X31.5981Y2.083
X31.607Y2.3152
X31.6616Y2.427
X31.6698Y-4.42
X31.6698Y-4.52
X31.7161Y2.3152
X31.7698Y-4.42
X31.7698Y-4.52
X31.8698Y-4.42
X31.8698Y-4.52
X31.9638Y-3.813
X31.9638Y-3.913
X31.9698Y-4.42
X31.9698Y-4.52
X32.0638Y-3.813
X32.0638Y-3.913
X32.0698Y-4.42
X32.0698Y-4.52
X32.0933Y2.083
X32.1638Y-3.813
X32.1638Y-3.913
X32.1698Y-4.42
X32.1698Y-4.52
X32.2638Y-3.813
X32.2638Y-3.913
X32.2698Y-4.42
X32.2698Y-4.52
X32.3638Y-3.813
X32.3638Y-3.913
X32.3698Y-4.42
X32.3698Y-4.52
X32.4638Y-3.813
X32.4638Y-3.913
X32.5638Y-3.813
X32.5638Y-3.913
X32.6638Y-3.813
X32.6638Y-3.913
X32.6869Y2.314
X32.7415Y2.4258
X32.7638Y-3.813
X32.7638Y-3.913
X32.796Y2.314
X32.8505Y2.4258
X32.8638Y-3.813
X32.8638Y-3.913
X32.9051Y2.314
X32.9596Y2.4258
X32.9638Y-3.813
X32.9638Y-3.913
X33.0141Y2.314
X33.0638Y-3.813
X33.0638Y-3.913
X33.0686Y2.4258
X33.1232Y2.314
X33.1638Y-3.813
X33.1638Y-3.913
X33.1777Y2.4258
X33.2322Y2.314
X33.2638Y-3.813
X33.2638Y-3.913
X33.2867Y2.4258
X33.3413Y2.314
X33.3638Y-3.813
X33.3638Y-3.913
X33.3943Y2.0809
X33.3958Y2.4258
X33.4503Y2.314
X33.4638Y-3.813
X33.4638Y-3.913
X33.5049Y2.4258
X33.5594Y2.314
X33.5638Y-3.813
X33.5638Y-3.913
X33.6139Y2.4258
X33.6638Y-3.813
X33.6638Y-3.913
X33.6684Y2.314
X33.7638Y-3.813
X33.7638Y-3.913
X33.8638Y-3.813
X33.8638Y-3.913
X33.8896Y2.0809
X33.9638Y-3.813
X33.9638Y-3.913
X34.0638Y-3.813
X34.0638Y-3.913
X34.1638Y-3.813
X34.1638Y-3.913
X34.2638Y-3.813
X34.2638Y-3.913
X34.3638Y-3.813
X34.3638Y-3.913
T8
X24.6003Y0.577
X24.7003Y0.577
X24.8003Y0.577
T9
X24.6753Y-9.218
X24.7033Y0.281
X24.8753Y-9.218
X25.6323Y-9.218
X25.8323Y-9.218
X26.0025Y0.281
X32.4891Y-0.721
X32.4891Y-1.223
X33.0006Y-1.7245
X33.788Y-1.7245
X33.7883Y-0.721
X33.7883Y-1.223
T10
X24.6745Y-7.1213
X24.6745Y-7.2866
X24.6745Y-7.452
X24.6745Y-7.6174
X24.6745Y-7.7827
X24.6745Y-7.9481
X24.6745Y-8.1134
X24.6745Y-8.2788
X24.6745Y-8.4441
X24.6745Y-8.6095
X24.891Y-7.1213
X24.891Y-7.2866
X24.891Y-7.452
X24.891Y-7.6174
X24.891Y-7.7827
X24.891Y-7.9481
X24.891Y-8.1134
X24.891Y-8.2788
X24.891Y-8.4441
X24.891Y-8.6095
T11
X27.3913Y-9.208
X27.7913Y-9.208
X28.1903Y-9.208
X28.5903Y-9.208
X28.9893Y-9.208
X29.3893Y-9.208
X29.7883Y-9.208
X30.1883Y-9.208
X34.2733Y-1.215
X34.2733Y-1.3804
X34.2733Y-1.5457
X34.2733Y-1.7111
X34.2733Y-1.8764
X34.2738Y-4.4703
X34.2738Y-4.6357
X34.4899Y-1.215
X34.4899Y-1.3804
X34.4899Y-1.5457
X34.4899Y-1.7111
X34.4899Y-1.8764
X34.4903Y-4.4703
X34.4903Y-4.6357
T12
X34.4318Y2.2291
X34.4318Y2.048
X34.4318Y1.8669
X34.6562Y2.2291
X34.6562Y2.048
X34.6562Y1.8669
T13
X26.1238Y2.44
X26.3238Y2.64
X26.5238Y2.44
X28.344Y-4.0439
T14
X28.344Y-0.038
T15
X27.3913Y-5.558
X27.7913Y-5.558
X28.1903Y-5.558
X28.5903Y-5.558
X28.9893Y-5.558
X29.3893Y-5.558
X29.7883Y-5.558
X30.1883Y-5.558
T16
X28.4013Y2.3711
X29.7123Y2.3711
X30.1346Y2.3711
X31.9889Y2.3711
X32.4141Y2.3699
X33.9299Y2.3699
T9
G00X24.61Y2.5636
M15
G01X24.61Y2.5085
M16
G05
G00X24.8482Y2.5656
M15
G01X24.9033Y2.5656
M16
G05
G00X25.1415Y2.5636
M15
G01X25.1415Y2.5085
M16
G05
G00X25.368Y2.5626
M15
G01X25.368Y2.5075
M16
G05
G00X25.6062Y2.5646
M15
G01X25.6613Y2.5646
M16
G05
G00X25.8995Y2.5626
M15
G01X25.8995Y2.5075
M16
G05
G00X26.7502Y2.5616
M15
G01X26.7502Y2.5065
M16
G05
G00X26.9884Y2.5636
M15
G01X27.0435Y2.5636
M16
G05
G00X27.2817Y2.5616
M15
G01X27.2817Y2.5065
M16
G05
G00X27.5058Y2.5616
M15
G01X27.5058Y2.5065
M16
G05
G00X27.744Y2.5636
M15
G01X27.7991Y2.5636
M16
G05
G00X28.0373Y2.5616
M15
G01X28.0373Y2.5065
M16
G05
T0
M30
