%TF.GenerationSoftware,KiCad,Pcbnew,7.0.9*%
%TF.CreationDate,2025-04-07T20:21:29+01:00*%
%TF.ProjectId,IIci_Reloaded,49496369-5f52-4656-9c6f-616465642e6b,rev?*%
%TF.SameCoordinates,Original*%
%TF.FileFunction,Profile,NP*%
%FSLAX46Y46*%
G04 Gerber Fmt 4.6, Leading zero omitted, Abs format (unit mm)*
G04 Created by KiCad (PCBNEW 7.0.9) date 2025-04-07 20:21:29*
%MOMM*%
%LPD*%
G01*
G04 APERTURE LIST*
%TA.AperFunction,Profile*%
%ADD10C,0.100000*%
%TD*%
G04 APERTURE END LIST*
D10*
X785249400Y-241477800D02*
X785224000Y-241452400D01*
X611335600Y69291200D02*
X758757200Y69291200D01*
X867189600Y-200757000D02*
X867189600Y-188167800D01*
X618847400Y9398000D02*
G75*
G03*
X618847400Y9398000I-2000000J0D01*
G01*
X654735600Y-11878600D02*
G75*
G03*
X657335600Y-11878600I1300000J0D01*
G01*
X776918200Y-241477800D02*
X776969000Y-241452400D01*
X634935600Y-100567800D02*
G75*
G03*
X637535600Y-100567800I1300000J0D01*
G01*
X654735600Y710600D02*
X654735600Y-11878600D01*
X886995200Y60325000D02*
G75*
G03*
X886995200Y60325000I-2000000J0D01*
G01*
X634935600Y-200757000D02*
G75*
G03*
X637535600Y-200757000I1300000J0D01*
G01*
X758757200Y65430400D02*
X758757200Y69291200D01*
X657335600Y-100567800D02*
X657335600Y-87978600D01*
X867189600Y710600D02*
G75*
G03*
X864589600Y710600I-1300000J0D01*
G01*
X778253800Y-117032600D02*
G75*
G03*
X778253800Y-117032600I-2250000J0D01*
G01*
X887916200Y-44678600D02*
X887916200Y-91694000D01*
X872142800Y-241477800D02*
X785351000Y-241477800D01*
X864589600Y-11878600D02*
G75*
G03*
X867189600Y-11878600I1300000J0D01*
G01*
X637535600Y-87978600D02*
G75*
G03*
X634935600Y-87978600I-1300000J0D01*
G01*
X779534400Y-237032800D02*
X776969000Y-241452400D01*
X782684000Y-230124000D02*
X782684000Y-237032800D01*
X867189600Y-188167800D02*
G75*
G03*
X864589600Y-188167800I-1300000J0D01*
G01*
X890989600Y69291200D02*
X890989600Y65176400D01*
X776867400Y-241477800D02*
X611335600Y-241477800D01*
X886995200Y3860800D02*
G75*
G03*
X886995200Y3860800I-2000000J0D01*
G01*
X728190400Y34366200D02*
G75*
G03*
X728190400Y34366200I-2250000J0D01*
G01*
X882506000Y69291200D02*
X890989600Y69291200D01*
X890989600Y-216966800D02*
X872142800Y-216966800D01*
X637535600Y710600D02*
G75*
G03*
X634935600Y710600I-1300000J0D01*
G01*
X618847400Y-233229400D02*
G75*
G03*
X618847400Y-233229400I-2000000J0D01*
G01*
X778304600Y34366200D02*
G75*
G03*
X778304600Y34366200I-2250000J0D01*
G01*
X654735600Y-100567800D02*
G75*
G03*
X657335600Y-100567800I1300000J0D01*
G01*
X727885600Y-117032600D02*
G75*
G03*
X727885600Y-117032600I-2250000J0D01*
G01*
X637535600Y-200757000D02*
X637535600Y-188167800D01*
X654735600Y-87978600D02*
X654735600Y-100567800D01*
X637535600Y-188167800D02*
G75*
G03*
X634935600Y-188167800I-1300000J0D01*
G01*
X864589600Y710600D02*
X864589600Y-11878600D01*
X657335600Y710600D02*
G75*
G03*
X654735600Y710600I-1300000J0D01*
G01*
X890989600Y65176400D02*
X890989600Y-44678600D01*
X865248800Y-131165600D02*
G75*
G03*
X865248800Y-131165600I-2250000J0D01*
G01*
X890989600Y-44678600D02*
X887916200Y-44678600D01*
X865248800Y20345400D02*
G75*
G03*
X865248800Y20345400I-2250000J0D01*
G01*
X634935600Y710600D02*
X634935600Y-11878600D01*
X634935600Y-87978600D02*
X634935600Y-100567800D01*
X618847400Y60477400D02*
G75*
G03*
X618847400Y60477400I-2000000J0D01*
G01*
X779534400Y-230124000D02*
X779534400Y-237032800D01*
X611335600Y-241477800D02*
X611335600Y69291200D01*
X864589600Y-200757000D02*
G75*
G03*
X867189600Y-200757000I1300000J0D01*
G01*
X789777400Y-95046800D02*
G75*
G03*
X789777400Y-95046800I-2750000J0D01*
G01*
X785249400Y-241477800D02*
X785351000Y-241477800D01*
X640916000Y-131165600D02*
G75*
G03*
X640916000Y-131165600I-2250000J0D01*
G01*
X872142800Y-216966800D02*
X872142800Y-241477800D01*
X760789200Y69291200D02*
X870517200Y69291200D01*
X657335600Y-87978600D02*
G75*
G03*
X654735600Y-87978600I-1300000J0D01*
G01*
X886995200Y-148869400D02*
G75*
G03*
X886995200Y-148869400I-2000000J0D01*
G01*
X637535600Y-11878600D02*
X637535600Y710600D01*
X758757200Y65430400D02*
G75*
G03*
X760789200Y65430400I1016000J0D01*
G01*
X657335600Y-11878600D02*
X657335600Y710600D01*
X882506000Y65684400D02*
X870517200Y65684400D01*
X782684000Y-230124000D02*
G75*
G03*
X779534400Y-230124000I-1574800J0D01*
G01*
X887916200Y-91846400D02*
X890989600Y-91846400D01*
X637535600Y-100567800D02*
X637535600Y-87978600D01*
X864589600Y-188167800D02*
X864589600Y-200757000D01*
X618847400Y-148869400D02*
G75*
G03*
X618847400Y-148869400I-2000000J0D01*
G01*
X641246200Y20345400D02*
G75*
G03*
X641246200Y20345400I-2250000J0D01*
G01*
X634935600Y-11878600D02*
G75*
G03*
X637535600Y-11878600I1300000J0D01*
G01*
X882506000Y69291200D02*
X882506000Y65684400D01*
X887916200Y-91694000D02*
X887916200Y-91846400D01*
X760789200Y65430400D02*
X760789200Y69291200D01*
X776867400Y-241477800D02*
X776918200Y-241477800D01*
X890989600Y-91846400D02*
X890989600Y-216966800D01*
X867189600Y-11878600D02*
X867189600Y710600D01*
X782684000Y-237032800D02*
X785224000Y-241452400D01*
X870517200Y65684400D02*
X870517200Y69291200D01*
X634935600Y-188167800D02*
X634935600Y-200757000D01*
%TO.C,SW1*%
X625163400Y-230637200D02*
G75*
G03*
X625163400Y-230637200I-950000J0D01*
G01*
X635323400Y-230637200D02*
G75*
G03*
X635323400Y-230637200I-950000J0D01*
G01*
%TO.C,S3*%
X649471200Y-230637200D02*
G75*
G03*
X649471200Y-230637200I-950000J0D01*
G01*
X659631200Y-230637200D02*
G75*
G03*
X659631200Y-230637200I-950000J0D01*
G01*
%TO.C,J3*%
X664544600Y67056000D02*
G75*
G03*
X664544600Y67056000I-1000000J0D01*
G01*
X664544600Y56896000D02*
G75*
G03*
X664544600Y56896000I-1000000J0D01*
G01*
X669624600Y61976000D02*
G75*
G03*
X669624600Y61976000I-1000000J0D01*
G01*
X674704600Y67056000D02*
G75*
G03*
X674704600Y67056000I-1000000J0D01*
G01*
X674704600Y56896000D02*
G75*
G03*
X674704600Y56896000I-1000000J0D01*
G01*
%TD*%
M02*
